<?xml version="1.0" encoding="utf-8"?>
<!-- Generator: Adobe Illustrator 25.3.0, SVG Export Plug-In . SVG Version: 6.00 Build 0)  -->
<svg version="1.1" id="Camada_1" xmlns="http://www.w3.org/2000/svg" xmlns:xlink="http://www.w3.org/1999/xlink" x="0px" y="0px"
	 viewBox="0 0 64 64" style="enable-background:new 0 0 64 64;" xml:space="preserve">
<style type="text/css">
	.st0{fill:#F0F0F0;}
	.st1{fill:#8A92B2;}
	.st2{fill:#62688F;}
	.st3{fill:#454A75;}
</style>
<path class="st0" d="M63,39.8c-4.2,17-21.6,27.6-38.7,23.2C7.1,58.8-3.3,41.3,1,24.3C5.2,7.1,22.6-3.3,39.7,0.9
	C56.9,5.2,67.3,22.5,63,39.8z"/>
<g>
	<path class="st0" d="M31.8,48L22,34.1l9.8,5.8l9.8-5.8L31.8,48z M31.8,38.1L22,32.3L31.8,16l9.8,16.3L31.8,38.1z"/>
	<polygon class="st1" points="31.8,16 22,32.3 31.8,27.8 	"/>
	<polygon class="st2" points="22,32.3 31.8,38.1 31.8,27.8 	"/>
	<polygon class="st2" points="31.8,27.8 41.6,32.3 31.8,16 	"/>
	<polygon class="st3" points="31.8,38.1 41.6,32.3 31.8,27.8 	"/>
	<polygon class="st1" points="22,34.1 31.8,48 31.8,40 	"/>
	<polygon class="st2" points="31.8,48 41.6,34.1 31.8,40 	"/>
</g>
</svg>
