<?xml version="1.0" encoding="utf-8"?>
<!-- Generator: Adobe Illustrator 25.3.0, SVG Export Plug-In . SVG Version: 6.00 Build 0)  -->
<svg version="1.1" id="katman_1" xmlns="http://www.w3.org/2000/svg" xmlns:xlink="http://www.w3.org/1999/xlink" x="0px" y="0px"
	 viewBox="0 0 128 128" style="enable-background:new 0 0 128 128;" xml:space="preserve">
<style type="text/css">
	.st0{fill:#F3BA2F;}
</style>
<g id="Layer_2">
	<g id="Layer_1-2">
		<path class="st0" d="M39.1,53.8L64,28.9l24.9,24.9l14.5-14.5L64,0L24.7,39.3L39.1,53.8 M0,64l14.5-14.5L28.9,64L14.5,78.5L0,64z
			 M39.1,74.2L64,99.1l24.9-24.9l14.5,14.5l0,0L64,128L24.7,88.7l0,0L39.1,74.2 M99.1,64l14.5-14.5L128,64l-14.5,14.5L99.1,64z"/>
		<path class="st0" d="M78.7,64L78.7,64L64,49.3L53.2,60.2l0,0l-1.2,1.2L49.3,64l0,0l0,0L64,78.7L78.7,64L78.7,64L78.7,64"/>
	</g>
</g>
</svg>
