<?xml version="1.0" encoding="utf-8"?>
<!-- Generator: Adobe Illustrator 25.3.0, SVG Export Plug-In . SVG Version: 6.00 Build 0)  -->
<svg version="1.1" id="katman_1" xmlns="http://www.w3.org/2000/svg" xmlns:xlink="http://www.w3.org/1999/xlink" x="0px" y="0px"
	 viewBox="0 0 128 128" style="enable-background:new 0 0 128 128;" xml:space="preserve">
<style type="text/css">
	.st0{display:none;opacity:9.390311e-03;}
	.st1{display:inline;}
	.st2{fill:#E6E6E6;}
	.st3{fill:#797979;}
	.st4{fill:#3E3C55;}
	.st5{fill:#FFFFFF;}
	.st6{fill:#5FBE91;}
	.st7{display:none;opacity:0.4742;}
	.st8{fill:#4D4D4D;}
	.st9{fill:#747474;}
	.st10{display:none;opacity:1.087934e-02;}
	.st11{fill:#8A8A8A;}
	.st12{fill:#4E4E4E;}
	.st13{display:none;opacity:1.057603e-02;}
	.st14{display:none;opacity:1.012066e-02;}
	.st15{fill:#5E5E5E;}
	.st16{display:none;opacity:0.8114;}
	.st17{display:none;opacity:9.095758e-03;}
	.st18{display:none;}
	.st19{display:none;opacity:2.063961e-02;}
	.st20{fill:#343434;}
	.st21{fill:#8B8B8B;}
	.st22{fill:#3B3B3A;}
	.st23{fill:#131313;}
	.st24{fill:#393939;}
	.st25{fill:#3A99FB;}
	.st26{display:none;opacity:2.587139e-02;}
	.st27{fill:#E60079;}
	.st28{display:none;opacity:2.537146e-02;}
	.st29{fill:#EC1B6C;}
	.st30{display:none;opacity:2.517080e-02;}
	.st31{fill:#00A6C4;}
	.st32{display:none;opacity:1.973308e-03;}
	.st33{fill:#0090FF;}
	.st34{fill:#529BEE;}
	.st35{display:none;opacity:2.397605e-02;}
</style>
<g>
	<g transform="matrix(0.6700000166893005,0,0,0.6700000166893005,-69.53985595703125,38.55474853515625)" class="st0">
		<g transform="matrix(1,0,0,1,551.0499877929688,1412.6600341796875)" class="st1">
			<path class="st2" d="M-320.2-237.7h-85.5l2.9-37.8h79.7L-320.2-237.7z"/>
		</g>
		<g transform="matrix(1,0,0,1,551.802978515625,1431.77001953125)" class="st1">
			<path class="st2" d="M-410.9-252.4h96v-8.5h-96V-252.4z"/>
		</g>
		<g transform="matrix(1,0,0,1,551.552001953125,1253.81494140625)" class="st1">
			<path class="st3" d="M-198.7-361.3h-328.4c-2.3,0-4.5,0.9-6.2,2.6c-1.6,1.6-2.6,3.9-2.6,6.2V-152h345.8v-200.5
				c0-1.1-0.2-2.3-0.7-3.3c-0.4-1.1-1.1-2-1.9-2.8c-0.8-0.8-1.8-1.5-2.8-1.9C-196.5-361.1-197.6-361.3-198.7-361.3z"/>
		</g>
		<g transform="matrix(1,0,0,1,551.552001953125,1379.3800048828125)" class="st1">
			<path class="st2" d="M-535.8-277.6v33c0,1.2,0.2,2.3,0.7,3.4c0.4,1.1,1.1,2,1.9,2.9c0.8,0.9,1.8,1.5,2.8,1.9
				c1.1,0.4,2.2,0.7,3.3,0.7h328.4c2.3,0,4.5-0.9,6.2-2.6s2.6-3.9,2.6-6.2v-33h-345.9V-277.6z"/>
		</g>
		<g transform="matrix(1,0,0,1,551.8040161132812,1255.074951171875)" class="st1">
			<path class="st2" d="M-207.3-344.4h-311.2v175.5h311.2V-344.4z"/>
		</g>
		<g transform="matrix(1,0,0,1,551.8040161132812,1379.1300048828125)" class="st1">
			<path class="st4" d="M-362.9-248.1c4.9,0,8.8-3.8,8.8-8.6c0-4.7-3.9-8.6-8.8-8.6c-4.9,0-8.8,3.8-8.8,8.6
				C-371.7-251.9-367.8-248.1-362.9-248.1z"/>
		</g>
		<g transform="matrix(1,0,0,1,405.7760009765625,1173.135009765625)" class="st1">
			<path class="st5" d="M-362.9-254.9c0.8,0,1.5-0.8,1.5-1.8c0-1-0.7-1.8-1.5-1.8c-0.8,0-1.5,0.8-1.5,1.8S-363.8-254.9-362.9-254.9z
				"/>
		</g>
		<g transform="matrix(1,0,0,1,412.05999755859375,1173.135009765625)" class="st1">
			<path class="st5" d="M-362.9-254.9c1,0,1.8-0.8,1.8-1.8c0-1-0.8-1.8-1.8-1.8s-1.8,0.8-1.8,1.8S-363.9-254.9-362.9-254.9z"/>
		</g>
		<g transform="matrix(1,0,0,1,418.3429870605469,1173.135009765625)" class="st1">
			<path class="st5" d="M-362.9-254.9c0.8,0,1.5-0.8,1.5-1.8c0-1-0.7-1.8-1.5-1.8c-0.8,0-1.5,0.8-1.5,1.8S-363.8-254.9-362.9-254.9z
				"/>
		</g>
		<g transform="matrix(1,0,0,1,551.301025390625,1252.5550537109375)" class="st1">
			<path class="st5" d="M-215.9-330.3H-510V-183h294.1V-330.3z"/>
		</g>
		<g transform="matrix(1,0,0,1,454.2850036621094,1228.60498046875)" class="st1">
			<path class="st2" d="M-393.3-284.1c-0.3,0-0.5,0.1-0.7,0.3c-0.2,0.2-0.3,0.5-0.3,0.7v52.9c0,0.3,0.1,0.5,0.3,0.7
				c0.2,0.2,0.5,0.3,0.7,0.3h60.8c0.3,0,0.5-0.1,0.7-0.3c0.2-0.2,0.3-0.5,0.3-0.7v-52.9c0-0.3-0.1-0.6-0.3-0.7
				c-0.2-0.2-0.5-0.3-0.7-0.3H-393.3z"/>
		</g>
		<g transform="matrix(1,0,0,1,551.552001953125,1228.85498046875)" class="st1">
			<path class="st2" d="M-393.1-283.9c-0.3,0-0.5,0.1-0.7,0.3c-0.2,0.2-0.3,0.5-0.3,0.7v52.4c0,0.3,0.1,0.5,0.3,0.7
				c0.2,0.2,0.5,0.3,0.7,0.3h60.3c0.3,0,0.5-0.1,0.7-0.3c0.2-0.2,0.3-0.5,0.3-0.7v-52.4c0-0.3-0.1-0.5-0.3-0.7
				c-0.2-0.2-0.5-0.3-0.7-0.3H-393.1z"/>
		</g>
		<g transform="matrix(1,0,0,1,648.5689697265625,1228.35498046875)" class="st1">
			<path class="st2" d="M-393.6-284.4c-0.3,0-0.5,0.1-0.7,0.3c-0.2,0.2-0.3,0.5-0.3,0.7v53.4c0,0.3,0.1,0.5,0.3,0.7
				c0.2,0.2,0.5,0.3,0.7,0.3h61.3c0.3,0,0.5-0.1,0.7-0.3c0.2-0.2,0.3-0.5,0.3-0.7v-53.4c0-0.3-0.1-0.5-0.3-0.7
				c-0.2-0.2-0.5-0.3-0.7-0.3H-393.6z"/>
		</g>
		<g transform="matrix(1,0,0,1,453.531005859375,1284.324951171875)" class="st1">
			<path class="st2" d="M-391.4-258.7c-0.6,0-1.1,0.2-1.5,0.6s-0.6,0.9-0.6,1.4s0.2,1,0.6,1.4c0.4,0.4,0.9,0.6,1.5,0.6h57
				c0.6,0,1.1-0.2,1.5-0.6c0.4-0.4,0.6-0.9,0.6-1.4s-0.2-1.1-0.6-1.4c-0.4-0.4-0.9-0.6-1.5-0.6
				C-334.4-258.7-391.4-258.7-391.4-258.7z"/>
		</g>
		<g transform="matrix(1,0,0,1,437.6960144042969,1294.6600341796875)" class="st1">
			<path class="st6" d="M-375.6-258.9c-0.6,0-1.1,0.2-1.5,0.7c-0.4,0.4-0.6,1-0.6,1.6s0.2,1.2,0.6,1.6c0.4,0.4,0.9,0.7,1.5,0.7h25.4
				c0.6,0,1.1-0.2,1.5-0.7c0.4-0.4,0.6-1,0.6-1.6s-0.2-1.2-0.6-1.6c-0.4-0.4-0.9-0.7-1.5-0.7C-350.2-258.9-375.6-258.9-375.6-258.9z
				"/>
		</g>
		<g transform="matrix(1,0,0,1,552.0560302734375,1284.324951171875)" class="st1">
			<path class="st2" d="M-391.4-258.7c-0.6,0-1.1,0.2-1.5,0.6s-0.6,0.9-0.6,1.4s0.2,1,0.6,1.4c0.4,0.4,0.9,0.6,1.5,0.6h57
				c0.6,0,1.1-0.2,1.5-0.6c0.4-0.4,0.6-0.9,0.6-1.4s-0.2-1.1-0.6-1.4c-0.4-0.4-0.9-0.6-1.5-0.6
				C-334.4-258.7-391.4-258.7-391.4-258.7z"/>
		</g>
		<g transform="matrix(1,0,0,1,536.2210083007812,1294.6600341796875)" class="st1">
			<path class="st6" d="M-375.6-258.9c-0.6,0-1.1,0.2-1.5,0.7c-0.4,0.4-0.6,1-0.6,1.6s0.2,1.2,0.6,1.6c0.4,0.4,0.9,0.7,1.5,0.7h25.4
				c0.6,0,1.1-0.2,1.5-0.7c0.4-0.4,0.6-1,0.6-1.6s-0.2-1.2-0.6-1.6s-0.9-0.7-1.5-0.7C-350.2-258.9-375.6-258.9-375.6-258.9z"/>
		</g>
		<g transform="matrix(1,0,0,1,648.0670166015625,1284.324951171875)" class="st1">
			<path class="st2" d="M-391.4-258.7c-0.6,0-1.1,0.2-1.5,0.6s-0.6,0.9-0.6,1.4s0.2,1,0.6,1.4c0.4,0.4,0.9,0.6,1.5,0.6h57
				c0.6,0,1.1-0.2,1.5-0.6c0.4-0.4,0.6-0.9,0.6-1.4s-0.2-1.1-0.6-1.4c-0.4-0.4-0.9-0.6-1.5-0.6
				C-334.4-258.7-391.4-258.7-391.4-258.7z"/>
		</g>
		<g transform="matrix(1,0,0,1,453.531005859375,1273.7349853515625)" class="st1">
			<path class="st2" d="M-391.4-258.7c-0.6,0-1.1,0.2-1.5,0.6s-0.6,0.9-0.6,1.4s0.2,1,0.6,1.4c0.4,0.4,0.9,0.6,1.5,0.6h57
				c0.6,0,1.1-0.2,1.5-0.6c0.4-0.4,0.6-0.9,0.6-1.4s-0.2-1.1-0.6-1.4c-0.4-0.4-0.9-0.6-1.5-0.6
				C-334.4-258.7-391.4-258.7-391.4-258.7z"/>
		</g>
		<g transform="matrix(1,0,0,1,552.0560302734375,1273.7349853515625)" class="st1">
			<path class="st2" d="M-391.4-258.7c-0.6,0-1.1,0.2-1.5,0.6s-0.6,0.9-0.6,1.4s0.2,1,0.6,1.4c0.4,0.4,0.9,0.6,1.5,0.6h57
				c0.6,0,1.1-0.2,1.5-0.6c0.4-0.4,0.6-0.9,0.6-1.4s-0.2-1.1-0.6-1.4c-0.4-0.4-0.9-0.6-1.5-0.6
				C-334.4-258.7-391.4-258.7-391.4-258.7z"/>
		</g>
		<g transform="matrix(1,0,0,1,648.0670166015625,1273.7349853515625)" class="st1">
			<path class="st2" d="M-391.4-258.7c-0.6,0-1.1,0.2-1.5,0.6s-0.6,0.9-0.6,1.4s0.2,1,0.6,1.4c0.4,0.4,0.9,0.6,1.5,0.6h57
				c0.6,0,1.1-0.2,1.5-0.6c0.4-0.4,0.6-0.9,0.6-1.4s-0.2-1.1-0.6-1.4c-0.4-0.4-0.9-0.6-1.5-0.6
				C-334.4-258.7-391.4-258.7-391.4-258.7z"/>
		</g>
		<g transform="matrix(1,0,0,1,632.4829711914062,1294.6600341796875)" class="st1">
			<path class="st6" d="M-375.8-258.9c-0.6,0-1.1,0.2-1.5,0.7c-0.4,0.4-0.6,1-0.6,1.6s0.2,1.2,0.6,1.6c0.4,0.4,1,0.7,1.5,0.7h25.8
				c0.6,0,1.1-0.2,1.5-0.7c0.4-0.4,0.6-1,0.6-1.6s-0.2-1.2-0.6-1.6s-1-0.7-1.5-0.7C-350-258.9-375.8-258.9-375.8-258.9z"/>
		</g>
	</g>
	<g transform="matrix(0.6399999856948853,0,0,0.6399999856948853,-457.61920166015625,72.67938232421875)" class="st7">
		<g transform="matrix(1,0,0,1,1183.780029296875,1265.8790283203125)" class="st1">
			<path class="st8" d="M-296-381.2h-167.8v224.9H-296V-381.2z"/>
		</g>
		<g transform="matrix(1,0,0,1,1183.780029296875,1191.2049560546875)" class="st1">
			<path class="st9" d="M-267.1-313.4h-225.5v89.3h225.5V-313.4z"/>
		</g>
		<g transform="matrix(1,0,0,1,1183.780029296875,1290.7760009765625)" class="st1">
			<path class="st9" d="M-267.1-313.4h-225.5v89.3h225.5V-313.4z"/>
		</g>
		<g transform="matrix(1,0,0,1,1183.780029296875,1390.344970703125)" class="st1">
			<path class="st9" d="M-267.1-313.4h-225.5v89.3h225.5V-313.4z"/>
		</g>
		<g transform="matrix(1,0,0,1,1183.780029296875,1191.2850341796875)" class="st1">
			<path class="st6" d="M-267.1-275.6h-225.5v13.7h225.5V-275.6z"/>
		</g>
		<g transform="matrix(1,0,0,1,1183.780029296875,1290.85400390625)" class="st1">
			<path class="st6" d="M-267.1-275.6h-225.5v13.7h225.5V-275.6z"/>
		</g>
		<g transform="matrix(1,0,0,1,1183.780029296875,1390.426025390625)" class="st1">
			<path class="st6" d="M-267.1-275.6h-225.5v13.7h225.5V-275.6z"/>
		</g>
		<g transform="matrix(1,0,0,1,1252.625,1159.43994140625)" class="st1">
			<path class="st6" d="M-379.9-263.6c2.9,0,5.2-2.3,5.2-5.2c0-2.8-2.3-5.1-5.2-5.1s-5.2,2.3-5.2,5.1
				C-385-265.9-382.7-263.6-379.9-263.6z"/>
		</g>
		<g transform="matrix(1,0,0,1,1270.6949462890625,1159.43994140625)" class="st1">
			<path class="st6" d="M-379.9-263.6c2.9,0,5.2-2.3,5.2-5.2c0-2.8-2.3-5.1-5.2-5.1s-5.2,2.3-5.2,5.1
				C-385-265.9-382.7-263.6-379.9-263.6z"/>
		</g>
		<g transform="matrix(1,0,0,1,1288.7640380859375,1159.43994140625)" class="st1">
			<path class="st6" d="M-379.9-263.6c2.9,0,5.2-2.3,5.2-5.2c0-2.8-2.3-5.1-5.2-5.1s-5.2,2.3-5.2,5.1
				C-385-265.9-382.7-263.6-379.9-263.6z"/>
		</g>
		<g transform="matrix(1,0,0,1,1252.625,1257.300048828125)" class="st1">
			<path class="st6" d="M-379.9-263.6c2.9,0,5.2-2.3,5.2-5.2c0-2.8-2.3-5.2-5.2-5.2s-5.2,2.3-5.2,5.2
				C-385-265.9-382.7-263.6-379.9-263.6z"/>
		</g>
		<g transform="matrix(1,0,0,1,1270.6949462890625,1257.300048828125)" class="st1">
			<path class="st6" d="M-379.9-263.6c2.9,0,5.2-2.3,5.2-5.2c0-2.8-2.3-5.2-5.2-5.2s-5.2,2.3-5.2,5.2
				C-385-265.9-382.7-263.6-379.9-263.6z"/>
		</g>
		<g transform="matrix(1,0,0,1,1288.7640380859375,1257.300048828125)" class="st1">
			<path class="st6" d="M-379.9-263.6c2.9,0,5.2-2.3,5.2-5.2c0-2.8-2.3-5.2-5.2-5.2s-5.2,2.3-5.2,5.2
				C-385-265.9-382.7-263.6-379.9-263.6z"/>
		</g>
		<g transform="matrix(1,0,0,1,1252.625,1355.1500244140625)" class="st1">
			<path class="st6" d="M-379.9-263.6c2.9,0,5.2-2.3,5.2-5.1c0-2.9-2.3-5.2-5.2-5.2s-5.2,2.3-5.2,5.2
				C-385-265.9-382.7-263.6-379.9-263.6z"/>
		</g>
		<g transform="matrix(1,0,0,1,1270.6949462890625,1355.1500244140625)" class="st1">
			<path class="st6" d="M-379.9-263.6c2.9,0,5.2-2.3,5.2-5.1c0-2.9-2.3-5.2-5.2-5.2s-5.2,2.3-5.2,5.2
				C-385-265.9-382.7-263.6-379.9-263.6z"/>
		</g>
		<g transform="matrix(1,0,0,1,1288.7640380859375,1355.1500244140625)" class="st1">
			<path class="st6" d="M-379.9-263.6c2.9,0,5.2-2.3,5.2-5.1c0-2.9-2.3-5.2-5.2-5.2s-5.2,2.3-5.2,5.2
				C-385-265.9-382.7-263.6-379.9-263.6z"/>
		</g>
	</g>
	<g transform="matrix(1,0,0,1,-596.4180297851562,-462)" class="st10">
		<g transform="matrix(1,0,0,1,858.1649780273438,1406.77001953125)" class="st1">
			<path class="st11" d="M-247.8-200.6c-0.4,0-0.7,0.1-1,0.4c-0.3,0.2-0.4,0.6-0.4,1v54.4c0,0.4,0.1,0.7,0.4,1s0.6,0.4,1,0.4h9.3
				c0.4,0,0.7-0.1,1-0.4c0.3-0.2,0.4-0.6,0.4-1v-54.4c0-0.4-0.1-0.7-0.4-1c-0.3-0.3-0.6-0.4-1-0.4H-247.8z"/>
		</g>
		<g transform="matrix(1,0,0,1,935.1929931640625,1406.77001953125)" class="st1">
			<path class="st11" d="M-247.8-200.6c-0.4,0-0.7,0.1-1,0.4c-0.3,0.2-0.4,0.6-0.4,1v54.4c0,0.4,0.1,0.7,0.4,1s0.6,0.4,1,0.4h9.3
				c0.4,0,0.7-0.1,1-0.4c0.3-0.2,0.4-0.6,0.4-1v-54.4c0-0.4-0.1-0.7-0.4-1c-0.3-0.3-0.6-0.4-1-0.4H-247.8z"/>
		</g>
		<g transform="matrix(1,0,0,1,938.3270263671875,1334.2900390625)" class="st1">
			<path class="st11" d="M-207.7-171.3l-71-5.5l56.7,9.6l13.6-2.4L-207.7-171.3z"/>
		</g>
		<g transform="matrix(1,0,0,1,938.8489990234375,1334.6409912109375)" class="st1">
			<path class="st12" d="M-222-168.4l13.6-2.3l0.1-0.3l0.6,0.1l-0.8,1.8l-13.6,2.3l-56.6-10.4l16.8,2L-222-168.4z"/>
		</g>
		<g transform="matrix(1,0,0,1,777.4810180664062,1334.2900390625)" class="st1">
			<path class="st11" d="M-207.7-171.3l-71-5.5l56.7,9.6l13.6-2.4L-207.7-171.3z"/>
		</g>
		<g transform="matrix(1,0,0,1,776.697021484375,1334.6409912109375)" class="st1">
			<path class="st12" d="M-222-168.4l13.6-2.3l0.1-0.3l0.6,0.1l-0.8,1.8l-13.6,2.3l-56.6-10.4l16.8,2L-222-168.4z"/>
		</g>
		<g transform="matrix(1,0,0,1,897.85400390625,1373.7550048828125)" class="st1">
			<path class="st11" d="M-155.2-182.4l-6,0.3l-55,23.2l-3.1,2.6l-10,8.3h-31.4l-9.4-8.3l-3.6-3.2l-52.8-22.4l-4.7-0.5l15.7-7.6h0.1
				c3.6-3.4,34.3-6,71.7-6s68.2,2.6,71.7,6h0.3L-155.2-182.4z"/>
		</g>
		<g transform="matrix(1,0,0,1,817.8209838867188,1346.405029296875)" class="st1">
			<path class="st11" d="M-235.9-162.2c0.1-0.3,0.2-0.6,0.2-1v-12.4c0-0.8-0.3-1.5-0.9-2.1c-0.6-0.5-1.3-0.9-2.1-0.9h-1.2
				c1-1,1.6-2.2,1.9-3.6c0.3-1.4,0.1-2.8-0.4-4.1s-1.4-2.4-2.6-3.1c-1.2-0.8-2.5-1.2-3.9-1.2c-1.4,0-2.8,0.4-3.9,1.2
				c-1.2,0.8-2.1,1.9-2.6,3.1c-0.5,1.3-0.7,2.7-0.4,4.1c0.3,1.4,0.9,2.6,1.9,3.6h-1.2c-0.4,0-0.8,0.1-1.1,0.2
				c-0.4,0.1-0.7,0.4-1,0.6c-0.3,0.3-0.5,0.6-0.6,1c-0.1,0.3-0.2,0.7-0.2,1.1v12.4c0,0.5,0.1,1,0.4,1.5c-0.9,0.2-1.8,0.3-2.7,0.5
				c-0.5,0.1-1,0.4-1.4,0.9c-0.3,0.4-0.5,1-0.5,1.5v2.9c0,0.6,0.3,1.3,0.7,1.7c0.5,0.5,1.1,0.7,1.7,0.7h27.6v-7.3
				C-230.7-161.4-233.2-161.9-235.9-162.2z"/>
		</g>
		<g transform="matrix(1,0,0,1,975.2739868164062,1346.405029296875)" class="st1">
			<path class="st11" d="M-230.1-161.2c-0.9-0.2-1.8-0.4-2.7-0.5c0.3-0.4,0.4-0.9,0.4-1.5v-12.4c0-0.4-0.1-0.8-0.2-1.1
				c-0.1-0.4-0.4-0.7-0.6-1c-0.3-0.3-0.6-0.5-1-0.6c-0.4-0.2-0.7-0.2-1.1-0.2h-1.2c1-1,1.6-2.2,1.9-3.6c0.3-1.4,0.1-2.8-0.4-4.1
				s-1.4-2.4-2.6-3.1c-1.2-0.8-2.5-1.2-3.9-1.2c-1.4,0-2.8,0.4-3.9,1.2c-1.2,0.8-2.1,1.9-2.6,3.1c-0.5,1.3-0.7,2.7-0.4,4.1
				c0.3,1.4,0.9,2.6,1.9,3.6h-1.2c-0.4,0-0.8,0.1-1.1,0.2c-0.4,0.1-0.7,0.4-1,0.6c-0.3,0.3-0.5,0.6-0.6,1c-0.1,0.3-0.2,0.7-0.2,1.1
				v12.4c0,0.3,0.1,0.7,0.2,1c-2.6,0.3-5.2,0.8-7.7,1.4v7.3h27.6c0.6,0,1.3-0.3,1.7-0.7c0.5-0.4,0.7-1.1,0.7-1.7v-2.9
				c0-0.6-0.2-1.1-0.5-1.5C-229-160.8-229.5-161.1-230.1-161.2z"/>
		</g>
		<g transform="matrix(1,0,0,1,1015.6179809570312,1334.2900390625)" class="st1">
			<path class="st11" d="M-278.6-171.3l71-5.5l-56.7,9.6l-13.6-2.4L-278.6-171.3z"/>
		</g>
		<g transform="matrix(1,0,0,1,896.0260009765625,1406.7049560546875)" class="st1">
			<path class="st11" d="M-237.7-183.3h-11c-0.4,0-0.8,0.1-1.2,0.2c-0.4,0.2-0.7,0.4-1,0.7c-0.3,0.3-0.5,0.6-0.7,1
				c-0.2,0.4-0.2,0.8-0.2,1.2v2.4c0,0.6,0.2,1.2,0.6,1.8c0.4,0.5,0.9,0.9,1.5,1.1c-0.5,0.5-0.7,1.2-0.7,1.9v0.7c0,0.5,0.1,1,0.3,1.4
				c0.2,0.4,0.6,0.8,1,1.1v9.1h12v-9.1c0.4-0.3,0.7-0.7,1-1.1c0.2-0.4,0.3-0.9,0.3-1.4v-0.7c0-0.7-0.2-1.4-0.7-1.9
				c0.6-0.2,1.1-0.6,1.5-1.1c0.4-0.5,0.6-1.1,0.6-1.8v-2.4c0-0.4-0.1-0.8-0.2-1.2c-0.2-0.4-0.4-0.7-0.7-1c-0.3-0.3-0.6-0.5-1-0.7
				C-236.9-183.2-237.2-183.3-237.7-183.3z"/>
		</g>
		<g transform="matrix(1,0,0,1,896.0260009765625,1425.97998046875)" class="st1">
			<path class="st12" d="M-254.4-181.2c-0.5,0-1,0.2-1.3,0.5c-0.3,0.4-0.5,0.8-0.5,1.3v14.8c0,0.5,0.2,0.9,0.5,1.3s0.8,0.5,1.3,0.5
				h22.4c0.5,0,1-0.2,1.3-0.5c0.3-0.3,0.5-0.8,0.5-1.3v-14.8c0-0.5-0.2-1-0.5-1.3c-0.3-0.3-0.8-0.5-1.3-0.5H-254.4z"/>
		</g>
		<g transform="matrix(1,0,0,1,896.2979736328125,1391.4649658203125)" class="st1">
			<path class="st12" d="M-217.8-174.1l-10,8.3h-31.3l-9.5-8.3h9.4l0.4-2c0.1-0.6,0.4-1.1,0.9-1.5c0.5-0.4,1.1-0.6,1.7-0.6h26.2
				c0.6,0,1.2,0.2,1.7,0.6s0.8,0.9,0.9,1.5l0.4,2H-217.8z"/>
		</g>
		<g transform="matrix(1,0,0,1,896.0260009765625,1425.9849853515625)" class="st1">
			<path class="st11" d="M-243.2-164.7c4,0,7.3-3.3,7.3-7.3s-3.3-7.3-7.3-7.3s-7.3,3.3-7.3,7.3C-250.4-168-247.2-164.7-243.2-164.7z
				"/>
		</g>
		<g transform="matrix(1,0,0,1,896.0260009765625,1425.97998046875)" class="st1">
			<path class="st2" d="M-243.2-167.8c2.3,0,4.2-1.9,4.2-4.2c0-2.3-1.9-4.2-4.2-4.2s-4.2,1.9-4.2,4.2S-245.4-167.8-243.2-167.8z"/>
		</g>
		<g transform="matrix(1,0,0,1,896.468994140625,1426.425048828125)" class="st1">
			<path class="st5" d="M-241.1-175.7c0.6,0.8,0.9,1.8,0.8,2.8c-0.1,1-0.5,1.9-1.2,2.7c-0.7,0.7-1.7,1.1-2.7,1.2
				c-1,0.1-2-0.2-2.8-0.8c0.4,0.5,0.8,0.9,1.3,1.1c0.5,0.3,1.1,0.5,1.7,0.5c0.6,0,1.2,0,1.7-0.3c0.6-0.2,1.1-0.5,1.5-1
				c0.4-0.4,0.7-0.9,1-1.5c0.2-0.6,0.3-1.2,0.3-1.8c0-0.6-0.2-1.2-0.5-1.7C-240.2-174.9-240.6-175.4-241.1-175.7z"/>
		</g>
		<g transform="matrix(1,0,0,1,896.6790161132812,1360.8599853515625)" class="st1">
			<path class="st2" d="M-149.4-172.6h-187.5v1.2h187.5V-172.6z"/>
		</g>
		<g transform="matrix(1,0,0,1,1016.1389770507812,1334.6409912109375)" class="st1">
			<path class="st12" d="M-264.2-168.4l-13.6-2.3l-0.1-0.3l-0.7,0.1l0.8,1.8l13.6,2.3l56.7-10.3l-16.8,2L-264.2-168.4z"/>
		</g>
		<g transform="matrix(1,0,0,1,854.77001953125,1334.2900390625)" class="st1">
			<path class="st11" d="M-278.7-171.3l71-5.5l-56.7,9.6l-13.6-2.4L-278.7-171.3z"/>
		</g>
		<g transform="matrix(1,0,0,1,855.5540161132812,1334.6409912109375)" class="st1">
			<path class="st12" d="M-264.2-168.4l-13.6-2.3l-0.1-0.3l-0.7,0.1l0.8,1.8l13.6,2.3l56.7-10.3l-16.8,2L-264.2-168.4z"/>
		</g>
		<g transform="matrix(1,0,0,1,896.4169921875,1389.5150146484375)" class="st1">
			<path class="st2" d="M-232.7-174.1h-20.9v4.2h20.9V-174.1z"/>
		</g>
	</g>
	<g transform="matrix(1,0,0,1,221.21600341796875,858.5)" class="st13">
		<g transform="matrix(1,0,0,1,33.779998779296875,40.112998962402344)" class="st1">
			<path class="st5" d="M-261.8-191h37.2v38h-37.2V-191z"/>
		</g>
		<g transform="matrix(1,0,0,1,78.53700256347656,38.84600067138672)" class="st1">
			<path class="st2" d="M-261.8-193.9h37.2v43.9h-37.2V-193.9z"/>
		</g>
		<g transform="matrix(1,0,0,1,124.13999938964844,41.380001068115234)" class="st1">
			<path class="st5" d="M-261.8-193.9h37.2v43.9h-37.2V-193.9z"/>
		</g>
		<g transform="matrix(1,0,0,1,47.29199981689453,71.35900115966797)" class="st1">
			<path class="st6" d="M-261.8-180.9h37.2v17.8h-37.2V-180.9z"/>
		</g>
		<g transform="matrix(1,0,0,1,111.47200012207031,71.35900115966797)" class="st1">
			<path class="st6" d="M-261.8-180.9h37.2v17.8h-37.2V-180.9z"/>
		</g>
		<g transform="matrix(1,0,0,1,79,53.5)" class="st1">
			<path class="st3" d="M-165.7-176.4c-1.6-14.3-4.7-25.9-9.3-34.2c-6.7-12.3-15.2-14.9-21.1-14.9c-17,0-26.5,3.2-30.8,10.2
				c-0.6,0.9-1.6,1.4-2.7,1.4h-27.7c-1.1,0-2.2-0.6-2.7-1.4c-4.3-7.1-13.8-10.2-30.8-10.2c-5.9,0-14.3,2.6-21.1,14.9
				c-4.6,8.4-7.7,19.9-9.3,34.2c-1.6,14.1-1.4,25.8,0.5,34.8c2.4,11.4,7.6,18.6,15.5,21.3c2.4,0.8,4.8,1.2,7.1,1.2
				c10.5,0,20.8-7.8,28.4-21.8c1.6,0.6,3.3,0.9,5.1,0.9c0.2,0,0.5,0,0.7,0c3.8-0.2,7.4-1.9,10-4.7c2.3-2.6,3.7-5.8,3.7-9.3h13.5v0.3
				c0.2,3.8,1.9,7.4,4.7,10c2.7,2.4,6.1,3.7,9.7,3.7c0.2,0,0.5,0,0.7,0c1.5-0.1,3-0.4,4.4-0.9c9.3,17.2,22.6,25.1,35.5,20.6
				c7.9-2.7,13.1-9.9,15.5-21.3C-164.2-150.6-164.1-162.3-165.7-176.4z M-197.7-200.9c3.2,0,5.8,2.6,5.8,5.8s-2.6,5.8-5.8,5.8
				s-5.8-2.6-5.8-5.8S-200.9-200.9-197.7-200.9z M-260.5-206.1c1,0.3,2.1,0.5,3.3,0.5h27.7c1.1,0,2.2-0.2,3.3-0.5v14.3
				c0,3-2.4,5.4-5.4,5.4h-23.3c-3,0-5.4-2.4-5.4-5.4L-260.5-206.1L-260.5-206.1z M-281.8-179.7c-0.8,0-1.6,0.7-1.6,1.6v6.4
				c0,0.8-0.7,1.6-1.6,1.6h-8.4c-0.8,0-1.6-0.7-1.6-1.6v-6.4c0-0.8-0.7-1.6-1.6-1.6h-6.4c-0.8,0-1.6-0.7-1.6-1.6v-8.4
				c0-0.8,0.7-1.6,1.6-1.6h6.4c0.8,0,1.6-0.7,1.6-1.6v-6.7c0-0.8,0.7-1.6,1.6-1.6h8.4c0.8,0,1.6,0.7,1.6,1.6v6.7
				c0,0.8,0.7,1.6,1.6,1.6h6.4c0.8,0,1.6,0.7,1.6,1.6v8.4c0,0.8-0.7,1.6-1.6,1.6H-281.8z M-264.2-148.2c-1.7,0.1-3.3-0.5-4.5-1.6
				c-0.1-0.1-0.2-0.2-0.3-0.3c-0.1-0.1-0.1-0.1-0.2-0.2s-0.1-0.1-0.2-0.2c-0.1-0.1-0.2-0.2-0.2-0.3c0,0,0-0.1-0.1-0.1
				c-0.7-0.9-1.1-2.1-1.2-3.4c-0.1-2.4,1.1-4.5,3-5.7c0.9-0.5,1.9-0.8,2.9-0.9h0.4c0.1,0,0.3,0,0.4,0h0.1c0.4,0,0.8,0.1,1.1,0.2l0,0
				c0.2,0.1,0.4,0.1,0.5,0.2l0,0c1.5,0.6,2.6,1.7,3.3,3.2c0,0,0,0,0,0.1c0.3,0.7,0.5,1.5,0.6,2.3
				C-258-151.3-260.8-148.3-264.2-148.2z M-243.4-165.4c-2.4,0-4.4-2-4.4-4.4c0-2.4,2-4.4,4.4-4.4c2.4,0,4.4,2,4.4,4.4
				C-238.9-167.4-240.9-165.4-243.4-165.4z M-222-148.2c-3.5,0.2-6.4-2.5-6.6-6c-0.1-1.1,0.2-2.1,0.6-3c0,0,0,0,0-0.1
				c0.1-0.2,0.2-0.3,0.3-0.5c0,0,0,0,0-0.1c0.3-0.5,0.7-0.9,1.1-1.3l0,0c0.3-0.3,0.6-0.5,0.9-0.7c0,0,0,0,0.1,0
				c0.1-0.1,0.3-0.2,0.4-0.2c0,0,0.1,0,0.1-0.1c0.1-0.1,0.3-0.1,0.4-0.2h0.1c0.2-0.1,0.4-0.1,0.5-0.2c0.1,0,0.1,0,0.2,0
				c0.1,0,0.3-0.1,0.4-0.1c0.1,0,0.1,0,0.2,0c0.2,0,0.4,0,0.6-0.1h0.5h0.3c0.1,0,0.2,0,0.3,0s0.2,0,0.3,0s0.2,0,0.3,0.1
				c0.1,0,0.2,0,0.3,0.1c0.1,0,0.2,0.1,0.3,0.1s0.2,0.1,0.3,0.1s0.2,0.1,0.3,0.1s0.2,0.1,0.3,0.1s0.2,0.1,0.3,0.2
				c0.1,0,0.2,0.1,0.2,0.1c0.1,0.1,0.2,0.1,0.3,0.2s0.2,0.1,0.2,0.2c0.1,0.1,0.2,0.1,0.2,0.2c0.1,0.1,0.2,0.1,0.2,0.2
				c0.1,0.1,0.1,0.1,0.2,0.2c0.1,0.1,0.1,0.1,0.2,0.2c0.1,0.1,0.1,0.2,0.2,0.2c0.1,0.1,0.1,0.2,0.2,0.2c0.1,0.1,0.1,0.2,0.2,0.3
				c0.1,0.1,0.1,0.2,0.2,0.3c0.1,0.1,0.1,0.2,0.2,0.3c0,0.1,0.1,0.2,0.1,0.3s0.1,0.2,0.1,0.3c0,0.1,0.1,0.2,0.1,0.3
				c0,0.1,0.1,0.2,0.1,0.3c0,0.1,0.1,0.2,0.1,0.3s0.1,0.3,0.1,0.4c0,0.1,0,0.1,0,0.2c0,0.2,0.1,0.4,0.1,0.6v0.6l0,0
				c0,0.2,0,0.4-0.1,0.6v0.1c0,0.2-0.1,0.4-0.1,0.6l0,0c-0.3,1-0.8,1.9-1.4,2.6l-0.4,0.4c0,0-0.1,0-0.1,0.1
				C-219.1-148.9-220.5-148.2-222-148.2z M-213-185.6c0-3.2,2.6-5.8,5.8-5.8s5.8,2.6,5.8,5.8s-2.6,5.8-5.8,5.8S-213-182.4-213-185.6
				z M-197.7-170.4c-3.2,0-5.8-2.6-5.8-5.8c0-3.2,2.6-5.8,5.8-5.8s5.8,2.6,5.8,5.8C-191.9-173-194.5-170.4-197.7-170.4z
				 M-188.2-179.8c-3.2,0-5.8-2.6-5.8-5.8s2.6-5.8,5.8-5.8s5.8,2.6,5.8,5.8S-185-179.8-188.2-179.8z"/>
		</g>
	</g>
	<g transform="matrix(1,0,0,1,186.28700256347656,-456)" class="st14">
		<g transform="matrix(1,0,0,1,113.71299743652344,1348.9749755859375)" class="st1">
			<path class="st15" d="M-200-217.6h-1v-26.2c0-4-1.6-7.9-4.4-10.7c-2.8-2.8-6.7-4.4-10.7-4.4h-55.2c-2,0-3.9,0.4-5.8,1.2
				c-1.8,0.8-3.5,1.9-4.9,3.3s-2.5,3.1-3.3,4.9c-0.8,1.8-1.1,3.8-1.1,5.8v143.6c0,2,0.4,4,1.1,5.8c0.8,1.8,1.9,3.5,3.3,4.9
				s3.1,2.5,4.9,3.3c1.8,0.8,3.8,1.2,5.8,1.2h55.2c4,0,7.8-1.6,10.7-4.4c2.8-2.8,4.4-6.7,4.4-10.7v-99h1V-217.6z"/>
		</g>
		<g transform="matrix(1,0,0,1,113.71299743652344,1348.969970703125)" class="st1">
			<path class="st5" d="M-215.4-255h-7.2c0.3,0.8,0.5,1.7,0.4,2.6s-0.4,1.7-0.9,2.4c-0.5,0.7-1.2,1.3-1.9,1.8
				c-0.8,0.4-1.6,0.6-2.5,0.6h-31.7c-0.9,0-1.7-0.2-2.5-0.6c-0.8-0.4-1.4-1-1.9-1.8c-0.5-0.7-0.8-1.6-0.9-2.4
				c-0.1-0.9,0-1.8,0.4-2.6h-6.7c-3,0-5.9,1.2-8,3.3c-2.1,2.1-3.3,5-3.3,8v143.4c0,1.5,0.3,3,0.9,4.3c0.6,1.4,1.4,2.6,2.4,3.7
				s2.3,1.9,3.7,2.5s2.8,0.9,4.3,0.9h55.4c1.5,0,2.9-0.3,4.3-0.9c1.4-0.6,2.6-1.4,3.7-2.5c1-1.1,1.9-2.3,2.4-3.7
				c0.6-1.4,0.9-2.9,0.9-4.3v-143.4c0-1.5-0.3-3-0.9-4.3c-0.6-1.4-1.4-2.6-2.4-3.7c-1-1-2.3-1.9-3.7-2.5
				C-212.5-254.7-214-255-215.4-255z"/>
		</g>
		<g transform="matrix(1,0,0,1,97.48200225830078,1320.333984375)" class="st1">
			<path class="st2" d="M-227-199.7h-32.3v55.4h32.3V-199.7z"/>
		</g>
		<g transform="matrix(1,0,0,1,132.5709991455078,1383.699951171875)" class="st1">
			<path class="st2" d="M-229.8-203.3h-26.8v62.7h26.8V-203.3z"/>
		</g>
		<g transform="matrix(1,0,0,1,132.63299560546875,1300.27001953125)" class="st1">
			<path class="st2" d="M-229.7-179.6h-26.9v15.2h26.9V-179.6z"/>
		</g>
		<g transform="matrix(1,0,0,1,132.63299560546875,1320.3399658203125)" class="st1">
			<path class="st2" d="M-229.7-180.2h-26.9v16.4h26.9V-180.2z"/>
		</g>
		<g transform="matrix(1,0,0,1,132.63299560546875,1340.4000244140625)" class="st1">
			<path class="st2" d="M-229.7-179.6h-26.9v15.2h26.9V-179.6z"/>
		</g>
		<g transform="matrix(1,0,0,1,97.52100372314453,1364.425048828125)" class="st1">
			<path class="st6" d="M-227-184.1h-32.3v24.1h32.3V-184.1z"/>
		</g>
		<g transform="matrix(1,0,0,1,97.52100372314453,1398.1300048828125)" class="st1">
			<path class="st2" d="M-227-188.9h-32.3v33.9h32.3V-188.9z"/>
		</g>
	</g>
	<g transform="matrix(1,0,0,1,-596.4180297851562,-462)" class="st16">
		<g transform="matrix(1,0,0,1,858.1649780273438,1406.77001953125)" class="st1">
			<path class="st11" d="M-247.8-200.6c-0.4,0-0.7,0.1-1,0.4c-0.3,0.2-0.4,0.6-0.4,1v54.4c0,0.4,0.1,0.7,0.4,1s0.6,0.4,1,0.4h9.3
				c0.4,0,0.7-0.1,1-0.4c0.3-0.2,0.4-0.6,0.4-1v-54.4c0-0.4-0.1-0.7-0.4-1c-0.3-0.3-0.6-0.4-1-0.4H-247.8z"/>
		</g>
		<g transform="matrix(1,0,0,1,935.1929931640625,1406.77001953125)" class="st1">
			<path class="st11" d="M-247.8-200.6c-0.4,0-0.7,0.1-1,0.4c-0.3,0.2-0.4,0.6-0.4,1v54.4c0,0.4,0.1,0.7,0.4,1s0.6,0.4,1,0.4h9.3
				c0.4,0,0.7-0.1,1-0.4c0.3-0.2,0.4-0.6,0.4-1v-54.4c0-0.4-0.1-0.7-0.4-1c-0.3-0.3-0.6-0.4-1-0.4H-247.8z"/>
		</g>
		<g transform="matrix(1,0,0,1,938.3270263671875,1334.2900390625)" class="st1">
			<path class="st11" d="M-207.7-171.3l-71-5.5l56.7,9.6l13.6-2.4L-207.7-171.3z"/>
		</g>
		<g transform="matrix(1,0,0,1,938.8489990234375,1334.6409912109375)" class="st1">
			<path class="st12" d="M-222-168.4l13.6-2.3l0.1-0.3l0.6,0.1l-0.8,1.8l-13.6,2.3l-56.6-10.4l16.8,2L-222-168.4z"/>
		</g>
		<g transform="matrix(1,0,0,1,777.4810180664062,1334.2900390625)" class="st1">
			<path class="st11" d="M-207.7-171.3l-71-5.5l56.7,9.6l13.6-2.4L-207.7-171.3z"/>
		</g>
		<g transform="matrix(1,0,0,1,776.697021484375,1334.6409912109375)" class="st1">
			<path class="st12" d="M-222-168.4l13.6-2.3l0.1-0.3l0.6,0.1l-0.8,1.8l-13.6,2.3l-56.6-10.4l16.8,2L-222-168.4z"/>
		</g>
		<g transform="matrix(1,0,0,1,897.85400390625,1373.7550048828125)" class="st1">
			<path class="st11" d="M-155.2-182.4l-6,0.3l-55,23.2l-3.1,2.6l-10,8.3h-31.4l-9.4-8.3l-3.6-3.2l-52.8-22.4l-4.7-0.5l15.7-7.6h0.1
				c3.6-3.4,34.3-6,71.7-6s68.2,2.6,71.7,6h0.3L-155.2-182.4z"/>
		</g>
		<g transform="matrix(1,0,0,1,817.8209838867188,1346.405029296875)" class="st1">
			<path class="st11" d="M-235.9-162.2c0.1-0.3,0.2-0.6,0.2-1v-12.4c0-0.8-0.3-1.5-0.9-2.1c-0.6-0.5-1.3-0.9-2.1-0.9h-1.2
				c1-1,1.6-2.2,1.9-3.6c0.3-1.4,0.1-2.8-0.4-4.1s-1.4-2.4-2.6-3.1c-1.2-0.8-2.5-1.2-3.9-1.2c-1.4,0-2.8,0.4-3.9,1.2
				c-1.2,0.8-2.1,1.9-2.6,3.1c-0.5,1.3-0.7,2.7-0.4,4.1c0.3,1.4,0.9,2.6,1.9,3.6h-1.2c-0.4,0-0.8,0.1-1.1,0.2
				c-0.4,0.1-0.7,0.4-1,0.6c-0.3,0.3-0.5,0.6-0.6,1c-0.1,0.3-0.2,0.7-0.2,1.1v12.4c0,0.5,0.1,1,0.4,1.5c-0.9,0.2-1.8,0.3-2.7,0.5
				c-0.5,0.1-1,0.4-1.4,0.9c-0.3,0.4-0.5,1-0.5,1.5v2.9c0,0.6,0.3,1.3,0.7,1.7c0.5,0.5,1.1,0.7,1.7,0.7h27.6v-7.3
				C-230.7-161.4-233.2-161.9-235.9-162.2z"/>
		</g>
		<g transform="matrix(1,0,0,1,975.2739868164062,1346.405029296875)" class="st1">
			<path class="st11" d="M-230.1-161.2c-0.9-0.2-1.8-0.4-2.7-0.5c0.3-0.4,0.4-0.9,0.4-1.5v-12.4c0-0.4-0.1-0.8-0.2-1.1
				c-0.1-0.4-0.4-0.7-0.6-1c-0.3-0.3-0.6-0.5-1-0.6c-0.4-0.2-0.7-0.2-1.1-0.2h-1.2c1-1,1.6-2.2,1.9-3.6c0.3-1.4,0.1-2.8-0.4-4.1
				s-1.4-2.4-2.6-3.1c-1.2-0.8-2.5-1.2-3.9-1.2c-1.4,0-2.8,0.4-3.9,1.2c-1.2,0.8-2.1,1.9-2.6,3.1c-0.5,1.3-0.7,2.7-0.4,4.1
				c0.3,1.4,0.9,2.6,1.9,3.6h-1.2c-0.4,0-0.8,0.1-1.1,0.2c-0.4,0.1-0.7,0.4-1,0.6c-0.3,0.3-0.5,0.6-0.6,1c-0.1,0.3-0.2,0.7-0.2,1.1
				v12.4c0,0.3,0.1,0.7,0.2,1c-2.6,0.3-5.2,0.8-7.7,1.4v7.3h27.6c0.6,0,1.3-0.3,1.7-0.7c0.5-0.4,0.7-1.1,0.7-1.7v-2.9
				c0-0.6-0.2-1.1-0.5-1.5C-229-160.8-229.5-161.1-230.1-161.2z"/>
		</g>
		<g transform="matrix(1,0,0,1,1015.6179809570312,1334.2900390625)" class="st1">
			<path class="st11" d="M-278.6-171.3l71-5.5l-56.7,9.6l-13.6-2.4L-278.6-171.3z"/>
		</g>
		<g transform="matrix(1,0,0,1,896.0260009765625,1406.7049560546875)" class="st1">
			<path class="st11" d="M-237.7-183.3h-11c-0.4,0-0.8,0.1-1.2,0.2c-0.4,0.2-0.7,0.4-1,0.7c-0.3,0.3-0.5,0.6-0.7,1
				c-0.2,0.4-0.2,0.8-0.2,1.2v2.4c0,0.6,0.2,1.2,0.6,1.8c0.4,0.5,0.9,0.9,1.5,1.1c-0.5,0.5-0.7,1.2-0.7,1.9v0.7c0,0.5,0.1,1,0.3,1.4
				c0.2,0.4,0.6,0.8,1,1.1v9.1h12v-9.1c0.4-0.3,0.7-0.7,1-1.1c0.2-0.4,0.3-0.9,0.3-1.4v-0.7c0-0.7-0.2-1.4-0.7-1.9
				c0.6-0.2,1.1-0.6,1.5-1.1c0.4-0.5,0.6-1.1,0.6-1.8v-2.4c0-0.4-0.1-0.8-0.2-1.2c-0.2-0.4-0.4-0.7-0.7-1c-0.3-0.3-0.6-0.5-1-0.7
				C-236.9-183.2-237.2-183.3-237.7-183.3z"/>
		</g>
		<g transform="matrix(1,0,0,1,896.0260009765625,1425.97998046875)" class="st1">
			<path class="st12" d="M-254.4-181.2c-0.5,0-1,0.2-1.3,0.5c-0.3,0.4-0.5,0.8-0.5,1.3v14.8c0,0.5,0.2,0.9,0.5,1.3s0.8,0.5,1.3,0.5
				h22.4c0.5,0,1-0.2,1.3-0.5c0.3-0.3,0.5-0.8,0.5-1.3v-14.8c0-0.5-0.2-1-0.5-1.3c-0.3-0.3-0.8-0.5-1.3-0.5H-254.4z"/>
		</g>
		<g transform="matrix(1,0,0,1,896.2979736328125,1391.4649658203125)" class="st1">
			<path class="st12" d="M-217.8-174.1l-10,8.3h-31.3l-9.5-8.3h9.4l0.4-2c0.1-0.6,0.4-1.1,0.9-1.5c0.5-0.4,1.1-0.6,1.7-0.6h26.2
				c0.6,0,1.2,0.2,1.7,0.6s0.8,0.9,0.9,1.5l0.4,2H-217.8z"/>
		</g>
		<g transform="matrix(1,0,0,1,896.0260009765625,1425.9849853515625)" class="st1">
			<path class="st11" d="M-243.2-164.7c4,0,7.3-3.3,7.3-7.3s-3.3-7.3-7.3-7.3s-7.3,3.3-7.3,7.3C-250.4-168-247.2-164.7-243.2-164.7z
				"/>
		</g>
		<g transform="matrix(1,0,0,1,896.0260009765625,1425.97998046875)" class="st1">
			<path class="st2" d="M-243.2-167.8c2.3,0,4.2-1.9,4.2-4.2c0-2.3-1.9-4.2-4.2-4.2s-4.2,1.9-4.2,4.2S-245.4-167.8-243.2-167.8z"/>
		</g>
		<g transform="matrix(1,0,0,1,896.468994140625,1426.425048828125)" class="st1">
			<path class="st5" d="M-241.1-175.7c0.6,0.8,0.9,1.8,0.8,2.8c-0.1,1-0.5,1.9-1.2,2.7c-0.7,0.7-1.7,1.1-2.7,1.2
				c-1,0.1-2-0.2-2.8-0.8c0.4,0.5,0.8,0.9,1.3,1.1c0.5,0.3,1.1,0.5,1.7,0.5c0.6,0,1.2,0,1.7-0.3c0.6-0.2,1.1-0.5,1.5-1
				c0.4-0.4,0.7-0.9,1-1.5c0.2-0.6,0.3-1.2,0.3-1.8c0-0.6-0.2-1.2-0.5-1.7C-240.2-174.9-240.6-175.4-241.1-175.7z"/>
		</g>
		<g transform="matrix(1,0,0,1,896.6790161132812,1360.8599853515625)" class="st1">
			<path class="st2" d="M-149.4-172.6h-187.5v1.2h187.5V-172.6z"/>
		</g>
		<g transform="matrix(1,0,0,1,1016.1389770507812,1334.6409912109375)" class="st1">
			<path class="st12" d="M-264.2-168.4l-13.6-2.3l-0.1-0.3l-0.7,0.1l0.8,1.8l13.6,2.3l56.7-10.3l-16.8,2L-264.2-168.4z"/>
		</g>
		<g transform="matrix(1,0,0,1,854.77001953125,1334.2900390625)" class="st1">
			<path class="st11" d="M-278.7-171.3l71-5.5l-56.7,9.6l-13.6-2.4L-278.7-171.3z"/>
		</g>
		<g transform="matrix(1,0,0,1,855.5540161132812,1334.6409912109375)" class="st1">
			<path class="st12" d="M-264.2-168.4l-13.6-2.3l-0.1-0.3l-0.7,0.1l0.8,1.8l13.6,2.3l56.7-10.3l-16.8,2L-264.2-168.4z"/>
		</g>
		<g transform="matrix(1,0,0,1,896.4169921875,1389.5150146484375)" class="st1">
			<path class="st2" d="M-232.7-174.1h-20.9v4.2h20.9V-174.1z"/>
		</g>
	</g>
	<g transform="matrix(0.6399999856948853,0,0,0.6399999856948853,-457.61920166015625,72.67938232421875)" class="st17">
		<g transform="matrix(1,0,0,1,1183.780029296875,1265.8790283203125)" class="st1">
			<path class="st8" d="M-296-381.2h-167.8v224.9H-296V-381.2z"/>
		</g>
		<g transform="matrix(1,0,0,1,1183.780029296875,1191.2049560546875)" class="st1">
			<path class="st9" d="M-267.1-313.4h-225.5v89.3h225.5V-313.4z"/>
		</g>
		<g transform="matrix(1,0,0,1,1183.780029296875,1290.7760009765625)" class="st1">
			<path class="st9" d="M-267.1-313.4h-225.5v89.3h225.5V-313.4z"/>
		</g>
		<g transform="matrix(1,0,0,1,1183.780029296875,1390.344970703125)" class="st1">
			<path class="st9" d="M-267.1-313.4h-225.5v89.3h225.5V-313.4z"/>
		</g>
		<g transform="matrix(1,0,0,1,1183.780029296875,1191.2850341796875)" class="st1">
			<path class="st6" d="M-267.1-275.6h-225.5v13.7h225.5V-275.6z"/>
		</g>
		<g transform="matrix(1,0,0,1,1183.780029296875,1290.85400390625)" class="st1">
			<path class="st6" d="M-267.1-275.6h-225.5v13.7h225.5V-275.6z"/>
		</g>
		<g transform="matrix(1,0,0,1,1183.780029296875,1390.426025390625)" class="st1">
			<path class="st6" d="M-267.1-275.6h-225.5v13.7h225.5V-275.6z"/>
		</g>
		<g transform="matrix(1,0,0,1,1252.625,1159.43994140625)" class="st1">
			<path class="st6" d="M-379.9-263.6c2.9,0,5.2-2.3,5.2-5.2c0-2.8-2.3-5.1-5.2-5.1s-5.2,2.3-5.2,5.1
				C-385-265.9-382.7-263.6-379.9-263.6z"/>
		</g>
		<g transform="matrix(1,0,0,1,1270.6949462890625,1159.43994140625)" class="st1">
			<path class="st6" d="M-379.9-263.6c2.9,0,5.2-2.3,5.2-5.2c0-2.8-2.3-5.1-5.2-5.1s-5.2,2.3-5.2,5.1
				C-385-265.9-382.7-263.6-379.9-263.6z"/>
		</g>
		<g transform="matrix(1,0,0,1,1288.7640380859375,1159.43994140625)" class="st1">
			<path class="st6" d="M-379.9-263.6c2.9,0,5.2-2.3,5.2-5.2c0-2.8-2.3-5.1-5.2-5.1s-5.2,2.3-5.2,5.1
				C-385-265.9-382.7-263.6-379.9-263.6z"/>
		</g>
		<g transform="matrix(1,0,0,1,1252.625,1257.300048828125)" class="st1">
			<path class="st6" d="M-379.9-263.6c2.9,0,5.2-2.3,5.2-5.2c0-2.8-2.3-5.2-5.2-5.2s-5.2,2.3-5.2,5.2
				C-385-265.9-382.7-263.6-379.9-263.6z"/>
		</g>
		<g transform="matrix(1,0,0,1,1270.6949462890625,1257.300048828125)" class="st1">
			<path class="st6" d="M-379.9-263.6c2.9,0,5.2-2.3,5.2-5.2c0-2.8-2.3-5.2-5.2-5.2s-5.2,2.3-5.2,5.2
				C-385-265.9-382.7-263.6-379.9-263.6z"/>
		</g>
		<g transform="matrix(1,0,0,1,1288.7640380859375,1257.300048828125)" class="st1">
			<path class="st6" d="M-379.9-263.6c2.9,0,5.2-2.3,5.2-5.2c0-2.8-2.3-5.2-5.2-5.2s-5.2,2.3-5.2,5.2
				C-385-265.9-382.7-263.6-379.9-263.6z"/>
		</g>
		<g transform="matrix(1,0,0,1,1252.625,1355.1500244140625)" class="st1">
			<path class="st6" d="M-379.9-263.6c2.9,0,5.2-2.3,5.2-5.1c0-2.9-2.3-5.2-5.2-5.2s-5.2,2.3-5.2,5.2
				C-385-265.9-382.7-263.6-379.9-263.6z"/>
		</g>
		<g transform="matrix(1,0,0,1,1270.6949462890625,1355.1500244140625)" class="st1">
			<path class="st6" d="M-379.9-263.6c2.9,0,5.2-2.3,5.2-5.1c0-2.9-2.3-5.2-5.2-5.2s-5.2,2.3-5.2,5.2
				C-385-265.9-382.7-263.6-379.9-263.6z"/>
		</g>
		<g transform="matrix(1,0,0,1,1288.7640380859375,1355.1500244140625)" class="st1">
			<path class="st6" d="M-379.9-263.6c2.9,0,5.2-2.3,5.2-5.1c0-2.9-2.3-5.2-5.2-5.2s-5.2,2.3-5.2,5.2
				C-385-265.9-382.7-263.6-379.9-263.6z"/>
		</g>
	</g>
	<g transform="matrix(0.6700000166893005,0,0,0.6700000166893005,-69.53985595703125,38.55474853515625)" class="st18">
		<g transform="matrix(1,0,0,1,551.0499877929688,1412.6600341796875)" class="st1">
			<path class="st2" d="M-320.2-237.7h-85.5l2.9-37.8h79.7L-320.2-237.7z"/>
		</g>
		<g transform="matrix(1,0,0,1,551.802978515625,1431.77001953125)" class="st1">
			<path class="st2" d="M-410.9-252.4h96v-8.5h-96V-252.4z"/>
		</g>
		<g transform="matrix(1,0,0,1,551.552001953125,1253.81494140625)" class="st1">
			<path class="st3" d="M-198.7-361.3h-328.4c-2.3,0-4.5,0.9-6.2,2.6c-1.6,1.6-2.6,3.9-2.6,6.2V-152h345.8v-200.5
				c0-1.1-0.2-2.3-0.7-3.3c-0.4-1.1-1.1-2-1.9-2.8c-0.8-0.8-1.8-1.5-2.8-1.9C-196.5-361.1-197.6-361.3-198.7-361.3z"/>
		</g>
		<g transform="matrix(1,0,0,1,551.552001953125,1379.3800048828125)" class="st1">
			<path class="st2" d="M-535.8-277.6v33c0,1.2,0.2,2.3,0.7,3.4c0.4,1.1,1.1,2,1.9,2.9c0.8,0.9,1.8,1.5,2.8,1.9
				c1.1,0.4,2.2,0.7,3.3,0.7h328.4c2.3,0,4.5-0.9,6.2-2.6s2.6-3.9,2.6-6.2v-33h-345.9V-277.6z"/>
		</g>
		<g transform="matrix(1,0,0,1,551.8040161132812,1255.074951171875)" class="st1">
			<path class="st2" d="M-207.3-344.4h-311.2v175.5h311.2V-344.4z"/>
		</g>
		<g transform="matrix(1,0,0,1,551.8040161132812,1379.1300048828125)" class="st1">
			<path class="st4" d="M-362.9-248.1c4.9,0,8.8-3.8,8.8-8.6c0-4.7-3.9-8.6-8.8-8.6c-4.9,0-8.8,3.8-8.8,8.6
				C-371.7-251.9-367.8-248.1-362.9-248.1z"/>
		</g>
		<g transform="matrix(1,0,0,1,405.7760009765625,1173.135009765625)" class="st1">
			<path class="st5" d="M-362.9-254.9c0.8,0,1.5-0.8,1.5-1.8c0-1-0.7-1.8-1.5-1.8c-0.8,0-1.5,0.8-1.5,1.8S-363.8-254.9-362.9-254.9z
				"/>
		</g>
		<g transform="matrix(1,0,0,1,412.05999755859375,1173.135009765625)" class="st1">
			<path class="st5" d="M-362.9-254.9c1,0,1.8-0.8,1.8-1.8c0-1-0.8-1.8-1.8-1.8s-1.8,0.8-1.8,1.8S-363.9-254.9-362.9-254.9z"/>
		</g>
		<g transform="matrix(1,0,0,1,418.3429870605469,1173.135009765625)" class="st1">
			<path class="st5" d="M-362.9-254.9c0.8,0,1.5-0.8,1.5-1.8c0-1-0.7-1.8-1.5-1.8c-0.8,0-1.5,0.8-1.5,1.8S-363.8-254.9-362.9-254.9z
				"/>
		</g>
		<g transform="matrix(1,0,0,1,551.301025390625,1252.5550537109375)" class="st1">
			<path class="st5" d="M-215.9-330.3H-510V-183h294.1V-330.3z"/>
		</g>
		<g transform="matrix(1,0,0,1,454.2850036621094,1228.60498046875)" class="st1">
			<path class="st2" d="M-393.3-284.1c-0.3,0-0.5,0.1-0.7,0.3c-0.2,0.2-0.3,0.5-0.3,0.7v52.9c0,0.3,0.1,0.5,0.3,0.7
				c0.2,0.2,0.5,0.3,0.7,0.3h60.8c0.3,0,0.5-0.1,0.7-0.3c0.2-0.2,0.3-0.5,0.3-0.7v-52.9c0-0.3-0.1-0.6-0.3-0.7
				c-0.2-0.2-0.5-0.3-0.7-0.3H-393.3z"/>
		</g>
		<g transform="matrix(1,0,0,1,551.552001953125,1228.85498046875)" class="st1">
			<path class="st2" d="M-393.1-283.9c-0.3,0-0.5,0.1-0.7,0.3c-0.2,0.2-0.3,0.5-0.3,0.7v52.4c0,0.3,0.1,0.5,0.3,0.7
				c0.2,0.2,0.5,0.3,0.7,0.3h60.3c0.3,0,0.5-0.1,0.7-0.3c0.2-0.2,0.3-0.5,0.3-0.7v-52.4c0-0.3-0.1-0.5-0.3-0.7
				c-0.2-0.2-0.5-0.3-0.7-0.3H-393.1z"/>
		</g>
		<g transform="matrix(1,0,0,1,648.5689697265625,1228.35498046875)" class="st1">
			<path class="st2" d="M-393.6-284.4c-0.3,0-0.5,0.1-0.7,0.3c-0.2,0.2-0.3,0.5-0.3,0.7v53.4c0,0.3,0.1,0.5,0.3,0.7
				c0.2,0.2,0.5,0.3,0.7,0.3h61.3c0.3,0,0.5-0.1,0.7-0.3c0.2-0.2,0.3-0.5,0.3-0.7v-53.4c0-0.3-0.1-0.5-0.3-0.7
				c-0.2-0.2-0.5-0.3-0.7-0.3H-393.6z"/>
		</g>
		<g transform="matrix(1,0,0,1,453.531005859375,1284.324951171875)" class="st1">
			<path class="st2" d="M-391.4-258.7c-0.6,0-1.1,0.2-1.5,0.6s-0.6,0.9-0.6,1.4s0.2,1,0.6,1.4c0.4,0.4,0.9,0.6,1.5,0.6h57
				c0.6,0,1.1-0.2,1.5-0.6c0.4-0.4,0.6-0.9,0.6-1.4s-0.2-1.1-0.6-1.4c-0.4-0.4-0.9-0.6-1.5-0.6
				C-334.4-258.7-391.4-258.7-391.4-258.7z"/>
		</g>
		<g transform="matrix(1,0,0,1,437.6960144042969,1294.6600341796875)" class="st1">
			<path class="st6" d="M-375.6-258.9c-0.6,0-1.1,0.2-1.5,0.7c-0.4,0.4-0.6,1-0.6,1.6s0.2,1.2,0.6,1.6c0.4,0.4,0.9,0.7,1.5,0.7h25.4
				c0.6,0,1.1-0.2,1.5-0.7c0.4-0.4,0.6-1,0.6-1.6s-0.2-1.2-0.6-1.6c-0.4-0.4-0.9-0.7-1.5-0.7C-350.2-258.9-375.6-258.9-375.6-258.9z
				"/>
		</g>
		<g transform="matrix(1,0,0,1,552.0560302734375,1284.324951171875)" class="st1">
			<path class="st2" d="M-391.4-258.7c-0.6,0-1.1,0.2-1.5,0.6s-0.6,0.9-0.6,1.4s0.2,1,0.6,1.4c0.4,0.4,0.9,0.6,1.5,0.6h57
				c0.6,0,1.1-0.2,1.5-0.6c0.4-0.4,0.6-0.9,0.6-1.4s-0.2-1.1-0.6-1.4c-0.4-0.4-0.9-0.6-1.5-0.6
				C-334.4-258.7-391.4-258.7-391.4-258.7z"/>
		</g>
		<g transform="matrix(1,0,0,1,536.2210083007812,1294.6600341796875)" class="st1">
			<path class="st6" d="M-375.6-258.9c-0.6,0-1.1,0.2-1.5,0.7c-0.4,0.4-0.6,1-0.6,1.6s0.2,1.2,0.6,1.6c0.4,0.4,0.9,0.7,1.5,0.7h25.4
				c0.6,0,1.1-0.2,1.5-0.7c0.4-0.4,0.6-1,0.6-1.6s-0.2-1.2-0.6-1.6s-0.9-0.7-1.5-0.7C-350.2-258.9-375.6-258.9-375.6-258.9z"/>
		</g>
		<g transform="matrix(1,0,0,1,648.0670166015625,1284.324951171875)" class="st1">
			<path class="st2" d="M-391.4-258.7c-0.6,0-1.1,0.2-1.5,0.6s-0.6,0.9-0.6,1.4s0.2,1,0.6,1.4c0.4,0.4,0.9,0.6,1.5,0.6h57
				c0.6,0,1.1-0.2,1.5-0.6c0.4-0.4,0.6-0.9,0.6-1.4s-0.2-1.1-0.6-1.4c-0.4-0.4-0.9-0.6-1.5-0.6
				C-334.4-258.7-391.4-258.7-391.4-258.7z"/>
		</g>
		<g transform="matrix(1,0,0,1,453.531005859375,1273.7349853515625)" class="st1">
			<path class="st2" d="M-391.4-258.7c-0.6,0-1.1,0.2-1.5,0.6s-0.6,0.9-0.6,1.4s0.2,1,0.6,1.4c0.4,0.4,0.9,0.6,1.5,0.6h57
				c0.6,0,1.1-0.2,1.5-0.6c0.4-0.4,0.6-0.9,0.6-1.4s-0.2-1.1-0.6-1.4c-0.4-0.4-0.9-0.6-1.5-0.6
				C-334.4-258.7-391.4-258.7-391.4-258.7z"/>
		</g>
		<g transform="matrix(1,0,0,1,552.0560302734375,1273.7349853515625)" class="st1">
			<path class="st2" d="M-391.4-258.7c-0.6,0-1.1,0.2-1.5,0.6s-0.6,0.9-0.6,1.4s0.2,1,0.6,1.4c0.4,0.4,0.9,0.6,1.5,0.6h57
				c0.6,0,1.1-0.2,1.5-0.6c0.4-0.4,0.6-0.9,0.6-1.4s-0.2-1.1-0.6-1.4c-0.4-0.4-0.9-0.6-1.5-0.6
				C-334.4-258.7-391.4-258.7-391.4-258.7z"/>
		</g>
		<g transform="matrix(1,0,0,1,648.0670166015625,1273.7349853515625)" class="st1">
			<path class="st2" d="M-391.4-258.7c-0.6,0-1.1,0.2-1.5,0.6s-0.6,0.9-0.6,1.4s0.2,1,0.6,1.4c0.4,0.4,0.9,0.6,1.5,0.6h57
				c0.6,0,1.1-0.2,1.5-0.6c0.4-0.4,0.6-0.9,0.6-1.4s-0.2-1.1-0.6-1.4c-0.4-0.4-0.9-0.6-1.5-0.6
				C-334.4-258.7-391.4-258.7-391.4-258.7z"/>
		</g>
		<g transform="matrix(1,0,0,1,632.4829711914062,1294.6600341796875)" class="st1">
			<path class="st6" d="M-375.8-258.9c-0.6,0-1.1,0.2-1.5,0.7c-0.4,0.4-0.6,1-0.6,1.6s0.2,1.2,0.6,1.6c0.4,0.4,1,0.7,1.5,0.7h25.8
				c0.6,0,1.1-0.2,1.5-0.7c0.4-0.4,0.6-1,0.6-1.6s-0.2-1.2-0.6-1.6s-1-0.7-1.5-0.7C-350-258.9-375.8-258.9-375.8-258.9z"/>
		</g>
	</g>
	<g transform="matrix(0.6299999952316284,0,0,0.6299999952316284,-135.32937622070312,-10.194061279296875)" class="st19">
		<g transform="matrix(1,0,0,1,741.8179931640625,233.39300537109375)" class="st1">
			<path class="st20" d="M-436.8-390.4l-2.3,7.7v224.8l2.3,2.3l104-61.7L-436.8-390.4z"/>
		</g>
		<g transform="matrix(1,0,0,1,638.9840087890625,233.3939971923828)" class="st1">
			<path class="st21" d="M-333.9-390.4l-104,173.1l104,61.7v-109.1V-390.4z"/>
		</g>
		<g transform="matrix(1,0,0,1,742.343994140625,382.4119873046875)" class="st1">
			<path class="st22" d="M-437.3-284.8l-1.3,1.6v80.1l1.3,3.8l104-147L-437.3-284.8z"/>
		</g>
		<g transform="matrix(1,0,0,1,638.9840087890625,382.4110107421875)" class="st1">
			<path class="st21" d="M-333.9-199.5v-85.3l-104-61.6L-333.9-199.5z"/>
		</g>
		<g transform="matrix(1,0,0,1,742.9520263671875,296.239990234375)" class="st1">
			<path class="st23" d="M-437.9-218.4l104-61.7l-104-47.4V-218.4z"/>
		</g>
		<g transform="matrix(1,0,0,1,638.9840087890625,296.239013671875)" class="st1">
			<path class="st24" d="M-437.9-280.1l104,61.7v-109.1L-437.9-280.1z"/>
		</g>
	</g>
	<g transform="matrix(0.38999998569488525,0,0,0.38999998569488525,15.647125244140625,179.59033203125)">
		<g transform="matrix(1,0,0,1,194.28700256347656,119)">
			<path class="st25" d="M-167.2-476.6c53.5-52.4,140.2-52.4,193.8,0l6.4,6.3c2.7,2.6,2.7,6.9,0,9.5l-22,21.6
				c-1.3,1.3-3.5,1.3-4.8,0l-8.9-8.7c-37.3-36.5-97.9-36.5-135.2,0l-9.5,9.3c-1.3,1.3-3.5,1.3-4.8,0l-22.1-21.6
				c-2.7-2.6-2.7-6.9,0-9.5L-167.2-476.6z M72.2-432.1l19.6,19.2c2.7,2.6,2.7,6.9,0,9.5L3.4-316.8c-2.7,2.6-7,2.6-9.7,0l-62.8-61.5
				c-0.7-0.6-1.7-0.6-2.4,0l-62.7,61.5c-2.7,2.6-7,2.6-9.7,0l-88.5-86.5c-2.7-2.6-2.7-6.9,0-9.5l19.6-19.2c2.7-2.6,7-2.6,9.7,0
				l62.8,61.5c0.7,0.6,1.7,0.6,2.4,0l62.7-61.5c2.7-2.6,7-2.6,9.7,0l62.8,61.5c0.7,0.6,1.7,0.6,2.4,0L62.5-432
				C65.1-434.7,69.5-434.7,72.2-432.1z"/>
		</g>
	</g>
	<g transform="matrix(1.6299999952316284,0,0,1.6299999952316284,155.8493194580078,191.76559448242188)" class="st26">
		<g transform="matrix(1,0,0,1,86.01000213623047,20.88800048828125)" class="st1">
			<path class="st5" d="M-193.7-108.7c-3.3,0-6.5,1.5-8.5,4.2c-2.3,2.8-3.5,6.3-3.4,9.9c-0.1,2.3,0.6,4.6,2.1,6.3
				c1.4,1.6,3.5,2.5,5.7,2.4c3.2,0,6.2-1.5,8.1-4c2.4-2.9,3.7-6.5,3.7-10.3c0.1-2.2-0.5-4.4-1.8-6.2
				C-189-107.9-191-108.7-193.7-108.7z M-193.6-91.8c-1.1,1.1-2.5,1.7-4.1,1.7c-1,0.1-2-0.4-2.7-1.2c-0.7-1-1-2.1-1-3.3
				c-0.1-2.5,0.6-5,2.1-7.1c1.1-1.8,3.1-2.9,5.3-2.9c2.4,0,3.6,1.5,3.6,4.4C-190.3-97.1-191.5-94.1-193.6-91.8z M-64.7-98.2
				c-1-0.3-2.1,0.1-2.5,1.1c-1.9,4.7-4.1,7-6.9,7c-1.5,0-2.2-1.3-2.2-3.7c0.2-2.7,0.6-5.4,1.2-8.1l0.6-2.8h5.7c1,0,1.8-0.7,2-1.7
				c0.2-1.1-0.5-2.2-1.6-2.4c-0.1,0-0.3,0-0.4,0h-4.8l1-4.7c0.2-1.2-0.5-2.3-1.7-2.6c-0.1,0-0.3,0-0.4,0c-1,0-1.9,0.7-2.1,1.7
				l-1.2,5.5h-13.3c-3.4,0-6.5,1.6-8.5,4.3c-2.3,2.8-3.5,6.3-3.4,9.9c0,1,0.1,1.9,0.3,2.9c-0.9,1-2.1,1.6-3.5,1.7
				c-0.7,0.1-1.3-0.2-1.8-0.7c-0.4-0.7-0.6-1.6-0.5-2.4c0.1-2.4,0.4-4.8,1-7.1l3.5-16.1c0.3-1.1-0.4-2.3-1.6-2.5
				c-1.1-0.3-2.3,0.4-2.5,1.6l-2,9.8c-1.4-0.8-3-1.3-4.7-1.3c-3.3,0-6.5,1.4-8.7,4c-2.3,2.8-3.6,6.4-3.5,10.1c0,1.2,0.1,2.3,0.5,3.5
				c-0.8,0.7-1.9,1.1-2.9,1.1c-0.7,0.1-1.4-0.2-1.9-0.7c-0.5-0.7-0.7-1.5-0.6-2.4c0.1-1.6,0.3-3.2,0.7-4.8c0.2-1.2-0.5-2.3-1.7-2.6
				c-0.1,0-0.1,0-0.2,0c-1.1-0.1-2.1,0.6-2.3,1.6c-0.6,2.3-1.6,4.4-2.9,6.3c-1,1.5-2.6,2.5-4.4,2.6c-0.9,0-1.8-0.5-2.3-1.3
				c-0.6-1.1-0.9-2.3-0.9-3.5c-0.1-2.5,0.6-5,2.1-7c1.2-1.8,3.3-2.8,5.5-2.8c1.1,0,2.2,0.2,3.2,0.7c0.6,0.3,1.3,0.2,1.9-0.1
				c1-0.6,1.3-1.8,0.7-2.8c-0.2-0.4-0.6-0.7-1-0.8c-0.5-0.2-1.1-0.4-1.7-0.5c-1-0.3-2.1-0.4-3.1-0.5c-3.3,0-6.5,1.5-8.6,4
				c-1.3,1.4-2.2,3.1-2.7,4.9c-2.1,6.6-4.7,9.8-7.9,9.8c-0.9,0.1-1.8-0.3-2.4-1.1c-0.5-0.8-0.8-1.7-0.7-2.6c0-0.3,0-0.6,0.1-0.9
				c1.9-0.8,3.6-2,4.9-3.7c1.2-1.6,1.9-3.5,1.9-5.5c0-3.3-1.8-5-5.5-5c-2.5,0-5,1-6.8,2.8l2.3-10.5c0.2-1.1-0.5-2.3-1.6-2.5
				c-0.1,0-0.3,0-0.4,0c-1,0-1.9,0.7-2.1,1.7l-6.2,28.9c-0.2,1.1,0.5,2.2,1.6,2.5c0.1,0,0.3,0,0.4,0c1,0,1.8-0.8,2-1.7l1.9-8.9
				c0.3-1.2,0.8-2.3,1.3-3.4c0.7-1.2,1.7-2.3,2.8-3.2c1.2-1,2.7-1.6,4.2-1.5c0.8-0.1,1.5,0.4,1.6,1.2c0,0.1,0,0.3,0,0.4
				c-0.1,1.4-0.8,2.7-2,3.5c-1.2,1.1-2.7,1.8-4.3,2.1c-0.1,1.3-0.2,2.2-0.2,2.7c-0.1,2.3,0.6,4.6,1.9,6.4c1.3,1.6,3.3,2.5,5.3,2.3
				c2.8,0,5.5-1.4,7.3-3.6l0.8-1c0.3,0.8,0.7,1.5,1.3,2.1c1.3,1.6,3.3,2.5,5.3,2.4c2.9,0,5.3-1.3,7.3-4.1c0.9,2.8,2.9,4.1,6.2,4.1
				c1.9,0,3.7-0.7,5.1-1.9c1.3,1.2,3,1.9,4.8,1.8c2.9,0,5.3-1.3,7.3-4.1c0.9,2.8,2.9,4.1,6.2,4.1c2.1,0,4.2-0.8,5.7-2.2
				c1.4,1.5,3.4,2.3,5.4,2.2c3.2,0,6.2-1.5,8.1-4c2.4-2.9,3.7-6.5,3.7-10.3c0-1.5-0.2-3-0.8-4.5h5.5l-0.5,2.4
				c-0.7,2.8-1.1,5.6-1.3,8.5c0,5.2,2.1,7.9,6.3,7.9c4.8,0,8.3-3.2,10.9-9.5c0.4-1,0-2.1-0.9-2.5C-64.5-98.2-64.6-98.2-64.7-98.2z
				 M-111.9-100.7c-0.7,3.7-1.9,6.3-3.3,8.1c-1.4,1.7-2.9,2.6-4.5,2.6c-0.9,0-1.8-0.5-2.3-1.3c-0.6-1.1-0.9-2.2-0.9-3.5
				c-0.1-2.5,0.6-5,2.1-7c1.9-2.9,5.7-3.7,8.5-1.8c0.3,0.2,0.5,0.4,0.8,0.6L-111.9-100.7z M-88.7-95.7c-0.6,1.4-1.4,2.7-2.4,3.9
				c-1.1,1.1-2.5,1.8-4.1,1.8c-1,0.1-2-0.4-2.7-1.2c-0.7-1-1-2.1-1-3.3c-0.1-2.5,0.6-5,2.1-7.1c1.2-1.8,3.1-2.9,5.3-2.9
				c2.4,0,3.6,1.5,3.6,4.4C-87.9-98.7-88.2-97.2-88.7-95.7L-88.7-95.7z M-175.7-119.1c-1,0-1.9,0.7-2.1,1.7l-6.2,28.9
				c-0.2,1.1,0.5,2.2,1.6,2.5c0.1,0,0.3,0,0.4,0c1,0,1.9-0.7,2.1-1.7l6.2-28.9c0.2-1.2-0.5-2.3-1.7-2.5
				C-175.4-119-175.5-119-175.7-119.1z M-219.9-125.4c-8.4,0-15.1,6.8-15.2,15.2c0,1.7,0.3,3.3,0.8,4.9c0.4,1.1,1.6,1.7,2.7,1.3
				c1.1-0.4,1.6-1.6,1.3-2.7c-0.4-1.2-0.7-2.6-0.6-3.9c0.2-6,5.2-10.8,11.3-10.6c6,0.2,10.8,5.2,10.6,11.3
				c-0.2,5.7-4.6,10.3-10.3,10.6c0,0-2.1,0.1-3.2,0.3c-0.4,0.1-0.8,0.1-1.2,0.2c-0.1,0-0.2,0-0.2,0c0-0.1,0-0.1,0-0.2l0.3-1.8l2-9.1
				c0.2-1.1-0.5-2.2-1.6-2.5c-1.1-0.2-2.2,0.5-2.5,1.6c0,0-4.8,22.1-4.8,22.3c-0.3,1.1,0.4,2.2,1.5,2.4h0.1c1.1,0.3,2.2-0.4,2.4-1.5
				v-0.1c0.1-0.3,0.7-3.2,0.7-3.2c0.5-2.2,2.2-3.9,4.5-4.2c0.6,0.1,2.5-0.1,2.5-0.1c8.3-0.8,14.5-8.2,13.7-16.5
				C-205.8-119.4-212.2-125.3-219.9-125.4z"/>
		</g>
		<g transform="matrix(1,0,0,1,174.21600341796875,38.465999603271484)" class="st1">
			<path class="st27" d="M-148.5-108.1c-1.4-0.3-2.7,0.6-3,2l0,0c-0.3,1.4,0.6,2.7,1.9,3c0,0,0,0,0.1,0c1.3,0.3,2.7-0.5,3-1.9v-0.1
				C-146.3-106.4-147.1-107.7-148.5-108.1z"/>
		</g>
	</g>
	<g transform="matrix(0.16099999845027924,0,0,0.16099999845027924,140.20750427246094,118.52912139892578)" class="st28">
		<g transform="matrix(1,0,0,1,1180.260009765625,95.81800079345703)" class="st1">
			<path class="st29" d="M-1493-1079.5c-2.2,1.5-3.3,2.3-4.4,3.1c-9,6.2-18.1,12.5-27.2,18.7c-0.8,0.5-1.8,0.6-2.7,1
				c0.6-0.6,1.1-1.4,1.8-1.8c9.7-7,19.5-14,29.2-20.9C-1495.8-1079.8-1494.9-1079.5-1493-1079.5z"/>
		</g>
		<g transform="matrix(1,0,0,1,1099.6199951171875,203.57400512695312)" class="st1">
			<path class="st29" d="M-1514.5-1061.6c-0.6-0.1-0.8-0.1-0.9-0.2c0.1-0.4,0-1,0.2-1.3c3.1-3.9,6.3-7.7,9.5-11.5
				c0.1-0.2,0.4-0.2,0.7-0.4c0,0.1,0.2,0.3,0.2,0.4C-1508.1-1070.1-1511.4-1065.8-1514.5-1061.6z"/>
		</g>
		<g transform="matrix(1,0,0,1,1121.1500244140625,171.7899932861328)" class="st1">
			<path class="st29" d="M-1522.3-1054.3c-0.6-0.2-0.7-0.2-0.9-0.3c0.1-0.4,0.1-1,0.4-1.2c3.5-3.5,7.1-7,10.6-10.5
				c0.2-0.2,4.2-4.7,4.5-4.8c1.4-1.3,10.7-11.1,0.8,0C-1510.6-1067-1518.7-1058.1-1522.3-1054.3z"/>
		</g>
		<g transform="matrix(1,0,0,1,1135.2900390625,133.91099548339844)" class="st1">
			<path class="st29" d="M-1530.5-1048.5c2.4-3.1,11.3-12.5,24.2-25c3.7-3.3,10-9.2,13.8-12.5c0.2-0.2,2.4-1.8,2.6-1.9
				c0,0.1-1.8,2-1.8,2C-1495.5-1082.1-1522.5-1058.4-1530.5-1048.5z"/>
		</g>
		<g transform="matrix(1,0,0,1,1099.6800537109375,228.00799560546875)" class="st1">
			<path class="st29" d="M-1505.6-1074.1c-2.5,3.7-5,7.5-7.6,11.2c-0.2,0.3-0.9,0.4-1.3,0.6c0-0.3-0.2-0.8,0-1
				C-1511.6-1066.9-1508.6-1070.5-1505.6-1074.1z"/>
		</g>
		<g transform="matrix(1,0,0,1,1048.14501953125,255.7169952392578)" class="st1">
			<path class="st29" d="M-1506.2-1074.6c-2.1,4-4.2,8-6.3,12c-0.2,0.3-0.8,0.5-1.3,0.7c-0.1-0.3-0.3-0.8-0.1-1
				C-1511.4-1066.8-1508.8-1070.6-1506.2-1074.6z"/>
		</g>
		<g transform="matrix(1,0,0,1,1552.5450439453125,971.0960083007812)" class="st1">
			<path class="st29" d="M-1514.9-1067.6c1.2-0.3,2.3-0.8,3.5-0.9c2-0.3,4.1-0.3,6.1-0.4c-2.1,0.5-4.1,1-6.2,1.4
				C-1512.6-1067.5-1513.8-1067.7-1514.9-1067.6L-1514.9-1067.6z"/>
		</g>
		<g transform="matrix(1,0,0,1,1203.3349609375,80.88400268554688)" class="st1">
			<path class="st29" d="M-1507.9-1069.3c-0.2,0.3-0.5,0.6-0.8,0.7c-1.1,0.6-2.3,1.1-3.5,1.8c0-0.3-0.1-0.8,0-0.9
				c1.3-0.6,2.7-1.3,4-1.9C-1508.1-1069.5-1508-1069.4-1507.9-1069.3z"/>
		</g>
		<g transform="matrix(1,0,0,1,1158.97998046875,111.17900085449219)" class="st1">
			<path class="st29" d="M-1511.3-1065.9c-0.7-0.9-0.9-1.1-0.9-1.1c1.2-1.1,2.4-2.3,3.7-3.4l0.5,0.4
				C-1509.1-1068.8-1510.1-1067.5-1511.3-1065.9z"/>
		</g>
		<g transform="matrix(1,0,0,1,1110.875,214.61599731445312)" class="st1">
			<path class="st29" d="M-1508.1-1069.5c-1.4,1.1-2.5,2-3.7,3c-0.1-0.2-0.4-0.5-0.4-0.5c1.1-1,2.2-1.9,3.4-2.9
				C-1508.8-1070-1508.5-1069.7-1508.1-1069.5z"/>
		</g>
		<g transform="matrix(1,0,0,1,1129.5150146484375,184.73300170898438)" class="st1">
			<path class="st29" d="M-1511.9-1066.8c0.4-0.4,0.8-0.8,1.2-1.1c0.7-0.6,1.4-1.1,2-1.8c0.1,0.1,0.2,0.1,0.2,0.3
				C-1509.5-1068.5-1510.7-1067.6-1511.9-1066.8z"/>
		</g>
		<g transform="matrix(1,0,0,1,1090.7550048828125,200.2729949951172)" class="st1">
			<path class="st29" d="M-1510.9-1067.9c0.5-0.5,0.9-0.8,1.2-1.1c0.1,0.1,0.3,0.4,0.3,0.4c-0.3,0.4-0.6,0.8-1,1.1
				C-1510.4-1067.4-1510.7-1067.7-1510.9-1067.9z"/>
		</g>
		<g transform="matrix(1,0,0,1,1162.72998046875,153.7550048828125)" class="st1">
			<path class="st29" d="M-1510-1069.1c0.4,0,0.9-0.1,1.3-0.1c-0.9,0.7-1.9,1.4-2.8,2C-1511.1-1067.9-1510.5-1068.5-1510-1069.1z"/>
		</g>
		<g transform="matrix(1,0,0,1,1114.97998046875,844.1240234375)" class="st1">
			<path class="st29" d="M-1511.2-1069.4c0.8,0.8,1.5,1.6,2.2,2.4C-1509.8-1067.8-1510.5-1068.6-1511.2-1069.4z"/>
		</g>
		<g transform="matrix(1,0,0,1,1039.344970703125,257.4989929199219)" class="st1">
			<path class="st29" d="M-1508.7-1070.9c-0.3,0.4-2.3,4.9-2.5,5.3c-0.1-0.2-0.4-0.5-0.3-0.6
				C-1511.3-1066.6-1508.9-1070.6-1508.7-1070.9z"/>
		</g>
		<g transform="matrix(1,0,0,1,1104.574951171875,213.03799438476562)" class="st1">
			<path class="st29" d="M-1511.1-1067.7c0.7-0.4,1.3-0.7,2-1.1C-1509.8-1068.4-1510.5-1068.1-1511.1-1067.7z"/>
		</g>
		<g transform="matrix(1,0,0,1,1206.7650146484375,78.84100341796875)" class="st1">
			<path class="st29" d="M-1508.7-1068.9c-0.9,0.5-1.8,1.1-2.7,1.6c-0.1-0.1-0.1-0.2-0.2-0.3c0.9-0.5,1.8-1.1,2.7-1.6
				C-1508.9-1069.1-1508.8-1069-1508.7-1068.9z"/>
		</g>
		<g transform="matrix(1,0,0,1,1150.6199951171875,173.70799255371094)" class="st1">
			<path class="st29" d="M-1510.3-1068.7c0.4,0,0.9-0.1,1.3-0.1c-0.8,0.4-1.5,0.7-2.3,1.1C-1510.9-1068-1510.6-1068.3-1510.3-1068.7
				z"/>
		</g>
		<g transform="matrix(1,0,0,1,1077.7449951171875,793.4249877929688)" class="st1">
			<path class="st29" d="M-1509.6-1067.3c-0.4-0.5-0.8-1.1-1.3-1.6c0.2,0,0.4-0.1,0.4-0.1c0.4,0.5,0.7,1,1,1.5
				C-1509.5-1067.5-1509.5-1067.4-1509.6-1067.3z"/>
		</g>
		<g transform="matrix(1,0,0,1,1104.864990234375,221.39100646972656)" class="st1">
			<path class="st29" d="M-1510.7-1067.5c0.3-0.5,0.6-1,0.8-1.5c0.1,0.1,0.3,0.2,0.4,0.3
				C-1509.9-1068.3-1510.3-1067.9-1510.7-1067.5C-1510.8-1067.5-1510.7-1067.5-1510.7-1067.5z"/>
		</g>
		<g transform="matrix(1,0,0,1,1546.0889892578125,971.9210205078125)" class="st1">
			<path class="st29" d="M-1508.5-1068.5c-1.1,0.2-2.2,0.3-3.3,0.5l0,0C-1510.7-1068.1-1509.6-1068.3-1508.5-1068.5L-1508.5-1068.5z
				"/>
		</g>
		<g transform="matrix(1,0,0,1,1268.0899658203125,970.593994140625)" class="st1">
			<path class="st29" d="M-1505-1066.6c1.8,0.7,3.6,1.4,5.4,2.2c0.3,0.4,0.7,0.7,1,1.1l0,0c-7.8-3.2-15.5-6.5-23.2-9.7
				C-1516.2-1070.9-1510.6-1068.8-1505-1066.6z"/>
		</g>
		<g transform="matrix(1,0,0,1,1069.3349609375,807.8410034179688)" class="st1">
			<path class="st29" d="M-1510.5-1069.4c0.2,0.8,0.5,1.5,0.8,2.3C-1510-1067.8-1510.3-1068.6-1510.5-1069.4z"/>
		</g>
		<g transform="matrix(1,0,0,1,1496.385009765625,35.150001525878906)" class="st1">
			<path class="st29" d="M-1441.4-1064.4c-0.2,0-0.4-0.1-0.6-0.1c-4.3-0.5-13.2,3.3-47-5.7c-4-1.1-7.5-1.9-10.6-2.5
				c-6.8-0.7-13.5-1.2-19.9-1.6c-8.6,0.7-13.6,3.2-25.1,1.9c-6.3-0.7-12.8,0.1-17.9,1.3c-11.3,2.6-16.3,6.9,0,0
				c0.2-0.1,0.5-0.2,0.7-0.3c8-3.5,24-3.9,42.4-2.9c4.9-0.4,10.9-0.2,19.9,1.6c21.4,2.1,43.2,5.5,57.7,8.2
				C-1441.7-1064.5-1441.6-1064.4-1441.4-1064.4z"/>
		</g>
		<g transform="matrix(1,0,0,1,1499.22998046875,506)" class="st1">
			<path class="st29" d="M-1122.9-767.3c1.6-2.1,3.2-4.1,4.8-6.2c1-1.5,1.9-2.9,2.9-4.3l0,0c1.7-2.6,3.5-5.1,5.2-7.8
				c1.1-1.6,2.2-3.2,3.4-4.8l0,0c1.3-1.7,2.6-3.4,3.7-5.2c3.7-5.9,7.4-11.9,10.8-18c1.3-2.5,2.7-4.9,4-7.4l0,0l0,0l0,0
				c5.3-9.6,10.6-19.3,15.2-29.2c4.1-8.8,7.6-17.8,11.1-26.9l0,0l0,0c1.3-3.5,2.7-7,4.1-10.4c0.4-1.1,0.9-2.2,1.3-3.3l0,0l0,0l0,0
				c2.1-5.2,4.1-10.3,5.8-15.6c3.5-11.2,6.7-22.4,9.7-33.8c0.1-0.6,0.3-1.1,0.4-1.7l0.3-1c3-11.4,6.1-22.9,8.4-34.5
				c2.2-11.1,3.7-22.5,4.9-33.9c1.2-11.2,2.1-22.4,2.2-33.6c0-4.8,0.1-9.8,0.2-14.8l0,0l0,0l0,0l0,0c0.2-10.2,0.3-20.7,0-30.5
				c-0.3-3.8-0.5-7.6-0.8-11.4l0,0c-0.5-8.2-1-16.3-2.2-24.4c-3.3-21.5-7.4-43-11.5-64.4c-12.5-64.5-44.2-123.9-83.8-175.6
				c-33.9-44.1-71.1-83.1-117.5-114.7c-66.5-45.4-136.4-75.2-217.1-86.9c-13.6-1.9-27.2-3.3-40.9-4.6c-3.2-0.3-6.4-0.6-9.6-0.9
				c-4.2-0.4-8.4-0.6-12.6-0.7c-2-0.1-3.9-0.2-5.9-0.3h-5.9h-3.8h-1.6c-0.9,0.3-1.8,0.6-2.7,0.9c-0.1,0-0.3-0.1-0.5-0.2
				c-0.1,0-0.2-0.1-0.2-0.1c0.1-0.1,0.3-0.2,0.4-0.3c0.1-0.1,0.3-0.2,0.4-0.3h-2.7c-2.1,0.1-4.2,0.3-6.3,0.4
				c-3.1,0.2-6.2,0.4-9.4,0.6c-10,0.8-19.9,1.6-29.9,2.5c-2.1,0.2-4.1,0.3-6.2,0.5c-6.5,0.5-13.1,1.1-19.5,2
				c-10.1,1.5-20.1,3.4-29.9,5.8c-13.3,3.2-26.6,6.8-39.8,10.7c-3.2,1-6.3,2.3-9.4,3.7c-2.4,1.1-4.7,2.1-7.1,3
				c-3.4,1.2-6.8,2.2-10.3,3.2c-2.6,0.8-5.2,1.5-7.8,2.4c-0.6,0.2-1.2,0.7-1.7,1.3c-0.5,0.5-1,1-1.6,1.2c-3,1.2-6,2.4-8.9,3.5l0,0
				c-4.6,1.8-9.1,3.5-13.6,5.5c-8.1,3.6-16.1,7.6-24,11.7c-9.8,5.2-19.5,10.6-29.2,16.1c-1,0.6-1.8,1.5-2.6,2.3l0,0
				c-0.4,0.4-0.8,0.9-1.2,1.3c0.1,0,0.1,0.1,0.2,0.2c0,0,0,0.1,0.1,0.1c4.4-2.3,8.7-4.6,13-6.8c8.5-4.5,17-9,25.6-13.2
				c9.4-4.6,19-8.8,28.6-13.1l0,0c3.9-1.7,7.8-3.5,11.6-5.2c1.3-0.6,2.6-1.2,3.9-1.8c3.6-1.7,7.2-3.4,11-4.6c2.8-0.9,5.8-1.5,8.8-2
				c3.8-0.7,7.6-1.5,11.1-2.9l0.6-0.2l0.6-0.2c6.6-2.5,13.1-5.1,20.1-6.3c6.3-1.2,12.6-2.6,18.8-4.1c3.9-0.9,7.7-1.8,11.6-2.6
				c1.3-0.3,2.6-0.3,4-0.3c1.3,0,2.6-0.1,3.8-0.3c2.6-0.5,5.3-1.2,7.9-1.8c4.4-1.1,8.7-2.1,13.1-2.7c9.1-1.1,18.3-1.6,27.5-2.1
				c1.5-0.1,3.1-0.2,4.7-0.2c5.3-0.3,10.7-0.4,16-0.5c2.7-0.1,5.3-0.1,8-0.2c1.2,0,2.4-0.1,3.6-0.1c3.6-0.1,7.2-0.2,10.8-0.2
				c2.1,0,4.1,0.1,6.2,0.2c1.9,0.1,3.7,0.2,5.6,0.2c1.8,0,3.6,0,5.4-0.1c2.6-0.1,5.2-0.1,7.9,0c11.6,0.8,23.2,1.8,34.8,2.9
				c1,0.1,1.9,0.5,2.9,0.8c0.4,0.2,0.8,0.3,1.2,0.5c-0.5,0-0.9,0-1.4,0c-0.9,0-1.8,0.1-2.8,0.1c-1.2,0-2.3,0-3.5,0
				c-3.4-0.1-6.7-0.3-10.1-0.5c-6.7-0.3-13.4-0.7-20.1-0.8c-3.5-0.1-6.9-0.1-10.3-0.1c0.2,0,0.4-0.1,0.5-0.1c0.2,0,0.4-0.1,0.5-0.1
				c-0.2-0.1-0.4-0.2-0.6-0.3c-0.4-0.2-0.8-0.4-1.3-0.5c-2.5-0.1-4.9-0.2-7.4-0.3c-6.6-0.3-13.2-0.5-19.8-0.4
				c-13.2,0.4-26.5,1.1-39.7,2.3c-5.5,0.5-10.9,1.6-16.3,2.6c-2.4,0.5-4.9,0.9-7.3,1.4c-1.9,0.3-3.7,0.7-5.6,1l0,0
				c-4.1,0.7-8.3,1.5-12.4,2.2c-4,0.7-8,1.4-12,2.1c-10.2,1.8-20.4,3.6-30.5,5.8c-7.7,1.7-15,4.5-22.4,7.4
				c-9.1,3.6-18.2,7.3-27.3,11l0,0c-5.1,2.1-10.1,4.2-15.2,6.2c-2.4,1-4.9,1.9-7.4,2.8c-4.6,1.7-9.2,3.4-13.6,5.6
				c-11.7,5.7-23.3,11.8-34.6,18.3c-12.8,7.3-25.6,14.8-37.8,23c-4.1,2.7-7.5,6.3-11,9.9c-1.5,1.6-3.1,3.2-4.7,4.8
				c-0.5,0.5-0.9,0.9-1.3,1.4c-0.5,0.5-0.9,0.9-1.3,1.4c-1.2,1-2.5,2.1-3.7,3.1l0,0l0,0c-2.8,2.4-5.6,4.8-8.5,7.1
				c-2.1,1.7-4.3,3.4-6.5,5.1l0,0c-4.2,3.3-8.4,6.6-12.4,10.2c-2.1,1.9-3.9,4.2-5.7,6.5c-1.2,1.5-2.3,3-3.6,4.4
				c-3.3,3.6-6.8,7.2-10.2,10.8l0,0l0,0l0,0l0,0c-1.6,1.6-3.1,3.2-4.7,4.9c0,0.2,0,0.4,0,0.5l0,0c0,0.3,0,0.7,0,1
				c0,0.1-0.3,0.1-0.5,0.2c-0.1,0-0.2,0-0.3,0.1c0.1-0.2,0.2-0.5,0.2-0.7l0,0c0.1-0.2,0.2-0.5,0.2-0.7c-1.6,1.8-3.2,3.5-4.8,5.3
				c0.3-0.3,0.7-0.5,1-0.8c0.2-0.1,0.3-0.2,0.4-0.3l0.2,0.3c-0.3,0.2-0.5,0.3-0.8,0.5c-0.3,0.2-0.6,0.3-0.8,0.5c-0.7,1-1.5,2-2.2,3
				c-1.7,2.3-3.4,4.6-5.3,6.8c-2.5,2.8-5,5.5-7.6,8.3c-4.1,4.4-8.2,8.8-12,13.5c-2.6,3.2-4.9,6.8-7.1,10.4l0,0
				c-1.2,2-2.4,3.9-3.7,5.8c-3.2,4.8-6.5,9.8-9.8,14.8l0,0c-3.3,5-6.6,10-9.8,14.8c2-2.9,4.6-5.8,7.1-8.7c2.2-2.5,4.3-5,6.1-7.4
				c5.6-7.5,11.3-14.8,17.2-22.1c3.3-4.1,6.8-8,10.2-11.9l0,0l0,0l0,0l0,0l0,0c1.1-1.2,2.1-2.4,3.2-3.6c0.3-0.3,0.7-0.5,1.1-0.7
				c0.2-0.1,0.4-0.2,0.6-0.3c-0.1,0.2-0.1,0.5-0.1,0.7c-0.1,0.5-0.1,1-0.4,1.2c-0.6,0.6-1.2,1.2-1.9,1.8c-1,0.9-1.9,1.7-2.7,2.7
				c-5,6.7-9.9,13.5-14.8,20.4c-2.6,3.8-4.9,7.6-7.2,11.4l0,0c-1.9,3.2-3.8,6.4-5.9,9.5l-0.1,0.1c-0.1,0.1-0.1,0.1-0.1,0.2l0-0.3
				l-0.1,0.1c-0.1,0.2-0.4,0.6-1.2,1.7l0,0l0,0l0,0c0.4-0.3,0.5-0.5,0.7-0.7c0.2-0.2,0.4-0.4,0.8-0.8l0,0c0.6-0.9,1.3-1.8,1.9-2.7
				c2.6-3.7,5.2-7.3,8-10.9c2.5-3.2,4.9-6.4,7.4-9.5l0,0l0,0l0,0l0,0c7.8-10.1,15.5-20.2,24-29.7c11.6-13.1,24-25.5,36.3-37.8
				c1-1,2-2,3-3c8.1-8.1,16.8-15.9,25.5-23.4c2.9-2.5,6.2-4.7,9.5-6.9l0,0l0,0c1.9-1.2,3.7-2.5,5.5-3.8c2.3-1.7,4.6-3.4,6.9-5.2
				c3.9-3,7.8-5.9,11.9-8.6c5.5-3.6,11.2-7,16.8-10.4c3.9-2.4,7.8-4.7,11.7-7.1c18.4-11.5,37.8-21.2,58.1-29.1c2.5-1,4.9-2,7.4-3
				l0,0c8.8-3.5,17.5-7.1,26.5-10.2c10.3-3.5,20.7-6.6,31.2-9.6l0,0c1.6-0.5,3.3-0.9,4.9-1.4c5.9-1.7,11.9-3.3,17.9-4.4
				c3.8-0.7,7.6-1.1,11.4-1.6c3.2-0.4,6.5-0.8,9.8-1.3c2.5-0.4,4.9-1,7.3-1.6c2.8-0.7,5.6-1.4,8.5-1.7c7.7-1,15.5-1.8,23.3-2.6
				c3.2-0.3,6.4-0.7,9.6-1c0.9-0.1,1.8-0.2,2.7-0.3c2.6-0.3,5.3-0.7,7.9-0.7c4.6,0,9.2,0.1,13.8,0.1c2.8,0.1,5.5,0.1,8.3,0.1
				c3,0,6,0,9,0c7.5,0,15,0.1,22.5,0.2c1.1,0,2.3,0.5,3.5,0.9c0.4,0.2,0.9,0.3,1.3,0.5c-1.1,0-2.2,0.1-3.3,0.2
				c-2.6,0.1-5.2,0.3-7.8,0.2c-1.4,0-2.8-0.2-4.2-0.4c-1.7-0.2-3.4-0.5-5.1-0.4c-10.5,0.3-21,0.9-31.5,1.4c-1.6,0.1-3.1,0.2-4.7,0.2
				c-1.6,0.1-3.2,0.2-4.7,0.2c-7.4,0.4-14.8,0.7-22.1,1.4c-4.2,0.4-8.3,1.1-12.4,1.8c-3,0.5-5.9,1-8.9,1.4c-2.3,0.3-4.7,0.5-7.1,0.7
				c-3.6,0.3-7.2,0.6-10.8,1.3c-3.4,0.6-6.8,1.7-10.1,2.7c-2.2,0.7-4.5,1.4-6.7,2c-3,0.8-6,1.4-9,2c-5.4,1.2-10.9,2.3-16,4.1
				c-1.9,0.7-3.8,1.3-5.7,2c-20.3,7.1-40.5,14.3-60.3,22.7c-12.8,5.5-25.1,12.2-37.3,19c-3.6,2-7.3,4-11,6
				c-7.6,4.1-14.9,8.6-22.1,13.4c-8.8,5.9-17.4,12-25.8,18.4c-7.4,5.5-14.6,11.3-21.6,17.3c-4.5,3.9-8.8,8-13.2,12.1l0,0
				c-1.7,1.6-3.3,3.1-5,4.7c-0.5,0.5-0.9,1.1-1.4,1.7c-0.2,0.3-0.3,0.5-0.5,0.7c0.3-0.2,0.6-0.3,0.8-0.5c0.7-0.4,1.4-0.7,2-1.2
				c4.2-3.6,8.4-7.3,12.6-11l0,0c2.5-2.2,5.1-4.5,7.6-6.7c0.4-0.4,0.9-0.5,1.4-0.7c0.2-0.1,0.4-0.1,0.6-0.2
				c-0.2,0.2-0.3,0.4-0.4,0.6c-0.2,0.4-0.5,0.8-0.8,1.1c-3,2.8-6,5.5-9.1,8.2l0,0l0,0l0,0l0,0c-5.8,5.3-11.7,10.5-17.3,16
				c-7.6,7.4-15,15.1-22.4,22.7l0,0l0,0l0,0l0,0c-2.5,2.5-4.9,5.1-7.4,7.6c-0.3,0.3-0.6,0.8-0.8,1.2c-0.1,0.2-0.2,0.5-0.4,0.7
				c0.2-0.1,0.5-0.3,0.7-0.4c0.4-0.2,0.9-0.5,1.2-0.8c2.1-2.1,4.2-4.2,6.3-6.4c3.4-3.4,6.7-6.9,10.1-10.2l1.2-1.1
				c8.8-8.4,17.5-16.9,26.6-24.9c6.1-5.4,12.4-10.5,18.7-15.6l0,0c2.8-2.3,5.6-4.5,8.4-6.8c0.3-0.2,0.7-0.3,1.1-0.5
				c0.2-0.1,0.4-0.1,0.6-0.2c-0.1,0.2-0.2,0.4-0.3,0.6c-0.2,0.4-0.4,0.8-0.7,1.1c-2.7,2.3-5.5,4.5-8.2,6.8l0,0l0,0l0,0l0,0
				c-5.6,4.6-11.3,9.3-16.7,14.2c-9.6,8.7-19,17.6-28,26.9c-7.5,7.7-14.7,15.8-21.8,23.9c-1.5,1.7-3,3.3-4.4,5
				c-0.9,1-1.5,2.2-2.1,3.5c-0.5,1-1,1.9-1.6,2.8c-0.9,1.2-1.8,2.4-2.6,3.7l0,0c-18.9,26.3-37.8,52.7-51.2,82.4
				c-2.2,4.9-12.3,32-9.7,27c9.8-21.1,20.2-42.8,32.8-62.5c18.2-28.7,37.5-54.7,61.2-77.1c0.2-0.2,0.4-0.4,0.6-0.6l0,0
				c0.2-0.2,0.4-0.4,0.6-0.6l1.7-2.5c0.1,0.2,0.2,0.5,0.3,0.7c0.1,0.1,0.1,0.1,0.2,0.2c0,0,0.1,0,0.1,0.1c1.4-1.4,2.7-2.7,4.1-4.1
				l0,0c4-4.1,8.1-8.1,12.2-12.1c3.3-3.2,6.6-6.2,10-9.3l0,0l0,0l0,0c1.2-1.1,2.5-2.2,3.7-3.3c0.3-0.4,0.7-0.9,1-1.3l0,0
				c0.2-0.2,0.4-0.5,0.6-0.7c0.3-0.3,0.5-0.5,0.8-0.7c0.3-0.2,0.5-0.5,0.8-0.7c-0.1,0.4-0.1,0.8-0.1,1.1v0.1c0.5-0.3,1.1-0.6,1.6-1
				c4.8-3.6,9.5-7.2,14.3-10.8l0,0c11.6-8.8,23.1-17.6,35.1-25.8c12.2-8.4,25.3-15.5,38.4-22.6c11.8-6.3,23.8-12.3,36.2-17.4
				c14.8-6.1,29.9-11.5,45.1-16.2c16.3-5,32.8-9.4,49.6-12.9c43.5-8.7,87.5-10.7,131.7-6.8c37,3.3,73.2,10.5,108.5,22.1
				c12.1,4,23.9,8.5,35.5,13.5c-9.8-4.1-19.7-7.7-30-10.7c-1.7-0.6-3.6-1.3-5.5-2l0,0c-1.9-0.7-3.7-1.4-5.5-2c-3.2-1-7-2.3-10.1-3.1
				c-2.9-0.8-5.8-1.6-8.7-2.5c-6.7-1.9-13.5-3.9-20.2-5.3c-12.1-2.5-27.6-5.6-39.8-7c-19.7-2.2-33.6-3.1-54.7-3.9
				c-1.7,0-3.8,0-5.9,0c-4.7,0-9.9-0.1-13.6,0c-8,0.2-12.6,0.6-20.4,1.4l-0.5,0.1c-14.6,1.4-29.3,3.2-43.9,5.4
				c-13.6,2-27.2,4.7-40.7,7.5c-2.3,0.5-4.5,1.4-6.7,2.4c-1.6,0.7-3.1,1.3-4.7,1.8c-3.4,1.1-6.9,2.1-10.4,3.1
				c-6.2,1.8-12.4,3.5-18.3,5.8c-14.2,5.3-28.3,11.2-42.1,17.4c-12.1,5.5-23.9,11.4-35.5,17.9c-7.8,4.3-15.2,9.2-22.6,14.1l0,0
				c-2,1.3-4.1,2.7-6.1,4c-2.6,1.7-5.1,3.6-7.6,5.5l0,0c-0.9,0.7-1.8,1.4-2.7,2.1c-3.7,2.8-7.3,5.5-10.9,8.3l0,0l0,0l0,0l0,0l0,0
				c-3.6,2.8-7.3,5.5-10.9,8.2c-1.5,1.1-3.1,2.2-4.7,3.4c-3.2,2.3-6.5,4.6-9.4,7.3c-9.5,8.8-18.7,17.8-27.9,26.9l0,0l0,0
				c-1.5,1.4-2.9,2.9-4.4,4.3c-4.7,4.6-9.2,9.4-13.7,14.2c-2.5,2.7-4.9,5.6-7.2,8.5l0,0l0,0c-0.4,0.4-0.7,0.9-1.1,1.3
				c-0.2,0.3-0.2,0.8-0.2,1.2c0,0.2,0,0.5,0,0.7c0.2-0.1,0.5-0.1,0.7-0.2c0.6-0.1,1.1-0.2,1.4-0.5c0.8-0.9,1.5-1.9,2.2-2.9
				c0.9-1.2,1.7-2.4,2.7-3.5c1.8-1.9,3.6-3.7,5.4-5.5c1.3-1.2,2.5-2.5,3.8-3.8c4.4-4.6,8.9-9.3,13.3-13.9l0,0l0,0l0,0l0,0
				c2.1-2.3,4.3-4.5,6.4-6.8l1-1c0.2-0.1,0.5-0.1,0.7-0.2c0.4-0.1,0.7-0.2,1.1-0.3c2.4-2.2,4.8-4.5,7.1-6.8c5-4.8,9.9-9.6,15.3-13.8
				c14-11,28.5-21.4,43.1-31.7c7.1-5,14.6-9.4,22-13.8c1-0.6,2-1.1,2.9-1.7c3.9-2.3,8-4.4,12-6.6c2-1.1,4-2.1,6.1-3.2
				c0.3-0.2,0.7-0.4,1-0.6c0.3-0.2,0.7-0.4,1-0.6c0,0.3,0,0.6-0.1,1l0,0c2.5-1.2,5-2.4,7.4-3.6l0,0c5.1-2.5,10.2-4.9,15.4-7.2
				c10.9-4.7,21.8-9.5,33-13.5c10.6-3.8,21.3-7.1,32.2-9.8c0.8-0.2,1.6-0.4,2.4-0.6c15.3-3.8,30.7-7.5,46.3-9.8
				c20.5-3,41.2-5.2,61.9-6.2c25.1-1.2,50.1,0.2,75,3.5c28.4,3.8,56.2,10.1,83.5,18.8c31.4,9.9,61.6,22.7,89.7,39.8
				c19.6,11.9,38.5,24.9,56.6,38.9c16.6,13,32.2,27.6,47.4,42.4c20.7,20.2,38.2,43.2,54,67.4c30.2,46,52,95.6,64.5,149.3
				c10.9,47.3,14.4,95,10.7,143.4c-2.6,34.3-8.9,67.9-19,100.8c-13.1,42.6-32.2,82.5-56.7,119.7c-19.2,29.1-41.4,55.8-66.5,79.9
				c-26.2,25.1-55.1,46.9-86.9,64.5c-2.2,1.2-4.5,2.5-6.7,3.8l0,0c-11,6.2-22,12.3-33.6,17.4c-19.7,8.6-39.9,16.1-60,23.4
				c-9.9,3.6-20.1,6.3-30.4,8.6c-8.7,2-17.5,3.6-26.4,5.2l0,0l0,0l0,0l0,0c-3.8,0.7-7.5,1.4-11.2,2.1c-1.3,0.2-2.5,0.4-3.8,0.7l0,0
				l0,0c-0.3,0-0.5,0.1-0.8,0.1c-0.4,0.1-0.8,0.1-1.1,0.2c0.8-0.3,1.6-0.6,2.4-0.9c0.8-0.3,1.6-0.6,2.4-0.9c0.1,0,0.1-0.1,0.2-0.2
				h0.1l0,0l0,0c-2.9,0.3-5.9,0.7-8.8,1c-8,0.9-16,1.8-24,2.9c-28.2,3.9-56.5,3-84.7,1.1c-30-2-59.7-7.3-88.5-15.9
				c-68.2-20.3-129.8-52.2-183.9-98.8c-24.5-21.1-47.3-44-68.3-68.7c-0.4-0.5-1-0.8-1.5-1.1c-0.2-0.1-0.4-0.2-0.7-0.4
				c0.1,0.3,0.1,0.6,0.2,0.9c0.1,0.6,0.3,1.3,0.6,1.8c1.4,2.1,2.8,4.3,4.2,6.5c3.5,5.5,7.1,11,11.3,15.8
				c10.3,12,21.2,23.5,32.4,34.7c5.9,5.9,12.2,11.4,18.4,16.9l0,0c2.7,2.4,5.4,4.8,8.1,7.2c-1-0.7-2-1.4-3-2.1l0,0
				c-2.6-1.8-5.2-3.6-7.4-5.8c-2.5-2.4-5-4.8-7.5-7.2l0,0c-13.7-13.1-27.3-26.3-40.5-39.9c-5.6-5.8-10.6-12.2-15.6-18.6
				c-2.2-2.8-4.4-5.7-6.7-8.5l-0.2,0.2c0.6,0.9,1.1,1.8,1.7,2.8l0,0l0,0l0,0c1.3,2.1,2.5,4.3,4,6.3c3.7,5.1,7.4,10,11.2,15l1,1.4
				c0.4,0.5,0.7,0.9,1.1,1.4l0.4,0.5c2.7,3.5,5.4,7.1,8.1,10.6c2.7,3.5,5.4,7.1,8.1,10.6c0.7,0.9,1.4,1.7,2.2,2.5l0,0
				c3.3,3.7,6.6,7.5,9.9,11.2c0.2,0.2,0.4,0.5,0.5,0.8l0,0c0.1,0.1,0.1,0.3,0.2,0.4c-0.1-0.1-0.2-0.1-0.4-0.2
				c-0.2-0.1-0.5-0.3-0.7-0.4c-0.8-0.7-1.7-1.3-2.5-2l0,0c-1.9-1.5-3.8-3-5.4-4.8c-10.2-11.5-20.5-23.1-30.3-34.9
				c-1.5-1.8-3-3.6-4.5-5.3l0,0l0,0c-7.4-8.8-14.9-17.6-21.1-27.2c-8.9-13.7-17.2-27.9-25.4-42.1l0,0l0,0c-2.9-5-5.8-10-8.7-15
				c-1.9-3.2-3.7-5.9-5.4-8.7c-1.9-2.9-3.8-5.8-5.8-9.3c-0.3-0.5-0.6-1-1-1.6l0,0l0,0l0,0l0,0c-0.5-0.8-1.2-1.8-2.1-3.3
				c0.7,1.4,1.4,3.3,2,4.8l0.1,0.2c1.4,3.4,2.7,6.7,4,10.1c2.4,6.2,4.8,12.3,7.4,18.4c1.9,4.6,4.2,9.1,6.6,13.5
				c7.6,13.3,15.2,26.6,23.1,39.6c2.5,4.2,5.5,8.1,8.5,12l0,0c1.3,1.7,2.6,3.4,3.9,5.2c0.1,0.4,0.3,0.8,0.4,1.1
				c0.1,0.4,0.3,0.8,0.4,1.1c0.5,0.5,1,1.1,1.4,1.6l0,0l0,0c1.4,1.5,2.8,3.1,4.2,4.7c1.2,1.4,2.4,2.7,3.5,4.1l0,0l0,0l0,0
				c3.7,4.3,7.4,8.6,11.2,12.9c0.7,0.8,1.4,1.5,2.1,2.3l0,0c1.3,1.4,2.6,2.7,3.7,4.2c1.7,2.1,3.3,4.3,4.9,6.5
				c2.3,3.2,4.7,6.4,7.2,9.4c5.7,6.8,11.5,13.6,17.8,19.9c8.6,8.6,17.3,17.2,26.7,24.9c8.7,7.1,17.7,13.7,26.8,20.3
				c3.8,2.8,7.7,5.6,11.5,8.5c43.6,33,98.9,53.8,151.6,68.2c55.8,15.3,108,17.3,165.3,13.5c58.6-4,116.3-14.9,170.3-38.3
				c9.4-4.1,18.8-8.4,28.1-12.7c5.8-2.7,11.6-5.5,17.2-8.5c4.2-2.2,8.3-4.6,12.3-7c7.2-4.4,14.4-8.8,21.5-13.3
				c3.9-2.5,7.7-5.3,11.5-8.1c3-2.3,6-4.6,8.9-6.9c2.1-1.6,4.1-3.3,6.2-4.9c2.9-2.3,5.8-4.5,8.7-6.7l0,0c5.8-4.4,11.6-8.8,17.2-13.5
				c6.2-5.2,12.1-10.9,17.9-16.6c10-10,19.9-20.2,29.5-30.6c6.6-7.1,12.8-14.7,18.9-22.2C-1129.9-758.2-1126.4-762.8-1122.9-767.3z
				 M-1847.4-696.2c0,0.1,0.1,0.2,0.1,0.3c0.1,0.3,0.2,0.6,0.5,0.8c2.2,1.6,4.4,3.3,6.6,4.9c2.2,1.6,20.8,14.2,20.8,14.2
				s-24.1-17.6-25.9-19.1c-0.4-0.3-0.9-0.5-1.3-0.8C-1847-696-1847.2-696.1-1847.4-696.2z M-1501.4-1553.6c-0.1,0.2-0.3,0.3-0.4,0.5
				c-0.2,0.2-0.3,0.4-0.5,0.6c0.2,0,0.3,0.1,0.4,0.1c0.3,0.1,0.7,0.2,1,0.2c1.3,0.1,2.5,0.1,3.8,0.2c2.5,0.1,5,0.2,7.5,0.6
				c4.9,0.6,9.8,1.1,14.7,1.5c12.2,1.1,24.4,2.2,36.1,6.4c0.9,0.3,2,0.3,3,0.3c0.8,0,1.7,0,2.5,0.2c5.5,1.2,11,2.4,16.5,3.6l0,0
				c3.9,0.9,7.8,1.7,11.7,2.5c1,0.2,2.1,0.4,3.2,0.5c1.5,0.2,3,0.4,4.4,0.8c2.1,0.6,4.1,1.5,6.2,2.4c0.9,0.4,1.8,0.8,2.7,1.1
				c0.2-0.4,8.5,0,13.2,0.2c2,0.1,3.5,0.2,3.3,0.1c-8.6-2.3-25.8-5.8-39.7-8.7c-6.4-1.3-12.1-2.5-16.1-3.3
				c-13.4-2.9-26.9-5.5-40.4-7.4c-7.6-1.1-15.4-1.5-23-1.9C-1494.7-1553.2-1498.1-1553.4-1501.4-1553.6L-1501.4-1553.6z
				 M-1388.1-1531.9l0.9,0.3l0,0c1.9,0.6,3.8,1.2,5.7,1.7c0.2,0.1,0.5,0.1,0.7,0.1c0.1,0,0.2,0,0.3,0c-0.1-0.1-0.1-0.1-0.2-0.2
				c-0.1-0.2-0.3-0.3-0.5-0.4C-1383.5-1530.9-1385.8-1531.4-1388.1-1531.9z M-1523.7-1564.5c-2.3-0.1-4.7-0.2-7-0.2
				c-3.1-0.1-6.3-0.2-9.4-0.3c-0.3,0-0.6,0.1-0.9,0.1c-0.2,0-0.3,0.1-0.4,0.1c0.2,0,0.3,0.1,0.5,0.2c0.3,0.1,0.6,0.2,0.9,0.2
				c3.5,0,7,0,10.5,0C-1527.6-1564.5-1525.6-1564.5-1523.7-1564.5z M-1544.3-1534.4c-0.8-0.1-1.6-0.1-2.4-0.1
				c-0.2,0-0.3,0.1-0.5,0.2c-0.1,0.1-0.2,0.1-0.3,0.2l0,0C-1546.4-1534.2-1545.4-1534.3-1544.3-1534.4z M-1543.8-1534.4
				c0.7,0,1.4-0.1,2.1-0.1c0-0.1-0.1-0.2-0.1-0.2C-1542.5-1534.7-1543.2-1534.6-1543.8-1534.4z M-1060.9-1100.9v-1.1
				C-1060.9-1101.6-1060.9-1101.2-1060.9-1100.9z M-1060.9-1100.9c0,0.4,0.1,0.8,0.2,1.2C-1060.8-1100-1060.8-1100.5-1060.9-1100.9z
				 M-1060.9-1106.1L-1060.9-1106.1C-1060.9-1106.2-1060.9-1106.2-1060.9-1106.1z M-1059.7-1094.8L-1059.7-1094.8L-1059.7-1094.8z
				 M-1908-1392c-0.2,0.3-7.5,7.8-7.5,7.8c0.3-0.5,7.1-9.1,7.1-9.1s10.4-11,15.6-16.6c0.3-0.3,0.6-0.6,0.9-0.9l0,0
				c0.2-0.2,0.4-0.4,0.6-0.6c1-1,1.9-2,2.8-3c-0.2,0.4-0.4,0.8-0.6,1.2c-0.5,0.9-0.9,1.8-1.6,2.6c-3.8,4.2-7.7,8.3-11.6,12.4l0,0
				C-1904.2-1396.2-1906.1-1394.1-1908-1392z M-1790.2-1476.8c0.2,0,0.5,0,0.9,0c-0.5,0.4-0.8,0.7-1.1,1c-0.3,0.3-0.6,0.5-0.8,0.7
				c-3.1,2-6.1,4-9.2,6c-0.4,0.2-0.8,0.4-1.2,0.5c0.1-0.1,0.1-0.2,0.2-0.4c0.1-0.3,0.2-0.5,0.4-0.7c3.3-2.4,6.7-4.7,10.1-7
				C-1790.9-1476.8-1790.6-1476.8-1790.2-1476.8z M-1826.4-1473.4c-1.3,0.9-2.6,1.8-3.8,2.6c-0.4-0.1-0.6-0.2-0.8-0.2
				c0-0.1,0.1-0.2,0.1-0.3c0.1-0.2,0.1-0.5,0.3-0.6c2.4-1.6,4.8-3.2,7.2-4.8c0.1-0.1,0.5-0.1,0.7,0c0.1,0,0.1,0.5,0,0.6
				C-1823.8-1475.1-1825.1-1474.2-1826.4-1473.4z M-1064.2-1132.3c-0.2,0.2-0.2,0.3-0.2,0.5
				C-1064.3-1132-1064.3-1132.1-1064.2-1132.3z M-1877.4-1425c0.2,0.1,0.4,0.2,0.6,0.3c-1.3,1.2-2.5,2.3-3.7,3.3l0,0l0,0
				c-0.9,0.8-1.8,1.6-2.7,2.5c0,0-0.3-0.2-0.4-0.3c1-1,1.9-2,2.9-3s1.9-2,2.9-3C-1877.8-1425.2-1877.6-1425.1-1877.4-1425z
				 M-1887.4-707.4h0.7c0.9,0.9,7.8,6.9,15.1,13.4l0.1,0.1l0,0l0,0l0,0c8.4,7.4,17.4,15.3,18.5,16.4c26.1,23.4-1.6-0.8-1.6-0.8
				l-26.9-23c-1.9-1.8-3.9-3.6-5.8-5.4c-0.1-0.1-0.1-0.3-0.1-0.4C-1887.4-707.3-1887.4-707.3-1887.4-707.4z M-1870.2-1437.5
				c0.1,0.1,0.3,0.2,0.4,0.3c-1.1,0.9-2.1,1.8-3,2.7l0,0l0,0c-0.6,0.6-1.2,1.1-1.9,1.6l-0.3-0.4c1.5-1.5,3-2.9,4.6-4.4
				C-1870.4-1437.7-1870.4-1437.6-1870.2-1437.5z M-1563.5-1533L-1563.5-1533c-1.3,0.1-2.7,0.2-3.9,0.3c-1.3-0.1-2.5-0.2-3.7-0.4
				c0.5-0.1,0.9-0.2,1.4-0.3c1.1-0.2,2.2-0.4,3.3-0.5c0.6,0,1.3,0.2,2,0.4C-1564.2-1533.2-1563.9-1533-1563.5-1533L-1563.5-1533z
				 M-1877.5-712.8c0.1-0.1,0.2-0.3,0.3-0.4c0.6,0.7,1.2,1.4,1.7,2l0,0c0.6,0.7,1.1,1.4,1.7,2l22.3,21.4
				c-1.2-1.1-25.2-23.3-26.4-24.5C-1877.9-712.2-1877.7-712.4-1877.5-712.8z M-1815.1-1459.5c-0.5,0.4-1,0.8-1.5,1.2
				c-0.2-0.3-0.4-0.5-0.3-0.5l0,0c1.6-1.1,3.1-2.3,4.8-3.4c0,0,0.1,0.1,0.2,0.1c0.1,0.1,0.1,0.1,0.2,0.2
				C-1812.9-1461.2-1814-1460.4-1815.1-1459.5L-1815.1-1459.5L-1815.1-1459.5z M-1063.7-1129.3L-1063.7-1129.3L-1063.7-1129.3z
				 M-1863.8-1442.3C-1863.8-1442.2-1863.8-1442.2-1863.8-1442.3l-0.1,0.2l-0.2,0.1l0,0c-0.6,0.5-1.1,1-1.6,1.4c0,0-0.2-0.1-0.4-0.3
				c0,0-0.1,0-0.1-0.1c0,0-0.1,0-0.1-0.1c0.2-0.2,0.4-0.4,0.6-0.5l0,0l0,0c0.4-0.3,0.8-0.7,1.2-1c0,0,0.2,0.1,0.5,0.2h0.1
				C-1863.9-1442.3-1863.9-1442.3-1863.8-1442.3z M-1025.5-1057.3C-1025.5-1057.2-1025.5-1057.2-1025.5-1057.3L-1025.5-1057.3z
				 M-1043.2-1202.7L-1043.2-1202.7L-1043.2-1202.7L-1043.2-1202.7L-1043.2-1202.7z M-1043.9-1204.8L-1043.9-1204.8L-1043.9-1204.8z
				 M-1835.4-1467.3c-0.4,0.4-0.8,0.7-1.2,1.2c0-0.1,0-0.2-0.1-0.2c0-0.2-0.1-0.3,0-0.4c0.6-0.6,1.2-1.2,1.8-1.8
				c0,0,0.3,0.2,0.4,0.3C-1834.7-1468-1835-1467.7-1835.4-1467.3z M-1348.2-1518.8c0.2,0.1,0.5,0.3,0.9,0.5c-0.4,0-0.8,0.1-1,0.2
				c-0.3,0.1-0.6,0.1-0.8,0.1c-0.3-0.1-0.6-0.4-0.9-0.6c-0.1-0.1-0.2-0.2-0.4-0.3c0.1,0,0.1,0,0.2,0h0.1l0,0
				c0.3-0.1,0.6-0.1,0.9-0.1C-1348.9-1519.2-1348.6-1519-1348.2-1518.8z M-1560.8-1564.4c0.2,0.1,0.4,0.2,0.6,0.4
				c-0.4,0-0.7,0-0.9,0c-0.5,0-0.9,0-1.2,0c-0.2,0-0.3-0.2-0.5-0.4c-0.1-0.1-0.1-0.2-0.2-0.3c0.1,0,0.3,0,0.4,0c0.3,0,0.7-0.1,1.1,0
				C-1561.3-1564.8-1561.2-1564.7-1560.8-1564.4z M-1791.8-1493.2c0.1,0.1,0.2,0.1,0.3,0.2c-0.1,0.1-0.2,0.2-0.3,0.3
				c-0.4,0.3-0.7,0.6-1,0.8c0,0-0.2-0.2-0.3-0.3s-0.1-0.2-0.2-0.2c0.1-0.1,0.2-0.2,0.3-0.2c0.3-0.2,0.6-0.4,0.9-0.6
				C-1792-1493.3-1791.9-1493.3-1791.8-1493.2z M-1037.9-1180L-1037.9-1180c0.1,0.3,0.1,0.5,0.1,0.8c0-0.2,0-0.3,0-0.5
				C-1037.9-1179.8-1037.9-1179.9-1037.9-1180z M-1489.7-597.4c0.1,0.1,0.3,0.1,0.5,0.2c-0.1,0-0.2,0.1-0.3,0.1l0,0
				c-0.4,0.2-0.7,0.2-1,0.2c-0.1,0-0.2-0.1-0.3-0.2c-0.1,0-0.1-0.1-0.1-0.1c0.1,0,0.2-0.1,0.3-0.1c0.2-0.1,0.4-0.2,0.6-0.2
				C-1490-597.6-1489.9-597.5-1489.7-597.4z M-1950-783.4L-1950-783.4c0.2,0.2,0.2,0.3,0.3,0.4l0,0h-0.1c-0.1,0.1-0.2,0.2-0.3,0.2
				c-0.3-0.3-0.6-0.6-0.8-1c0,0,0.2-0.2,0.3-0.3c0.1,0.1,0.1,0.2,0.2,0.2c0.1,0.1,0.1,0.1,0.2,0.2l0.1,0.1l0,0l0,0L-1950-783.4
				L-1950-783.4z M-1428.2-1555c0,0.1,0,0.1,0,0.2c-0.1,0-0.3,0-0.4,0c-0.3,0-0.5,0-0.8-0.1c-0.1,0-0.3-0.1-0.4-0.3
				c0,0-0.1,0-0.1-0.1l0,0c0,0,0,0-0.1,0c0.1,0,0.3,0,0.4,0c0.2,0,0.4,0,0.6,0s0.4,0.1,0.6,0.1
				C-1428.3-1555.2-1428.2-1555.1-1428.2-1555C-1428.2-1555.1-1428.2-1555-1428.2-1555z M-1588.2-1549.5c0.2-0.1,0.4-0.2,0.5-0.3
				c0.2,0.1,0.4,0.1,0.5,0.1c-0.1,0.1-0.2,0.1-0.4,0.2c-0.2,0.1-0.5,0.3-0.7,0.4c-0.1,0.1-0.2,0-0.4-0.1c-0.1,0-0.1-0.1-0.2-0.1
				C-1588.5-1549.4-1588.3-1549.4-1588.2-1549.5z M-1383.1-1543.8L-1383.1-1543.8c0.2,0,0.4,0.1,0.7,0.1c-0.2,0.1-0.3,0.2-0.4,0.2
				c-0.3,0.2-0.4,0.3-0.5,0.3c-0.2,0-0.4-0.2-0.6-0.3l0,0c-0.1-0.1-0.2-0.1-0.3-0.1c0,0,0,0,0.1-0.1l0,0l0,0l0,0
				c0.1-0.1,0.1-0.2,0.2-0.2C-1383.6-1543.9-1383.4-1543.8-1383.1-1543.8z M-1414.1-1551.5c0.1,0,0.2-0.1,0.4-0.1
				c0.3,0.1,0.6,0.2,0.8,0.2c-0.1,0-0.1,0-0.2,0.1c-0.3,0.1-0.6,0.1-0.9,0.1c-0.2,0-0.3,0-0.4-0.1c-0.1,0-0.2-0.1-0.3-0.1
				C-1414.5-1551.4-1414.3-1551.4-1414.1-1551.5L-1414.1-1551.5z M-1892.5-713L-1892.5-713L-1892.5-713c0.2,0.2,0.3,0.2,0.4,0.3
				c-0.2,0.1,1.5,2,2.5,3.1l0,0c0.4,0.5,0.7,0.8,0.7,0.8c-0.3-0.2-4.3-3.9-4.5-4.2c0,0,0.3-0.4,0.4-0.4
				C-1892.9-713.3-1892.7-713.2-1892.5-713z M-1742.3-1502.1c-0.1,0.3-0.3,0.6-0.3,0.7c-0.6-0.1-0.7-0.1-0.9-0.1
				c0.1-0.1,0.1-0.1,0.2-0.2l0,0l0,0c0.1-0.2,0.3-0.3,0.4-0.4c0.1-0.1,0.2,0,0.4,0l0,0C-1742.4-1502.1-1742.3-1502.1-1742.3-1502.1z
				 M-1346.4-1528.2L-1346.4-1528.2L-1346.4-1528.2c0,0.1-0.1,0.2-0.1,0.4c-0.3-0.2-0.6-0.4-0.8-0.5l-0.1-0.1
				c-0.1-0.1-0.2-0.2-0.3-0.2c0.1,0,0.1,0,0.2-0.1c0.1,0,0.2-0.1,0.3-0.1c0.3,0.1,0.6,0.2,0.9,0.4
				C-1346.3-1528.4-1346.3-1528.4-1346.4-1528.2z M-1919.1-1379.7c-0.1,0.1-0.2,0.3-0.4,0.4c0,0,0,0-0.1-0.1
				c-0.1-0.1-0.2-0.2-0.2-0.2c0.1-0.1,0.2-0.3,0.4-0.4L-1919.1-1379.7z M-1457.2-1560.3L-1457.2-1560.3L-1457.2-1560.3
				L-1457.2-1560.3c0.1,0,0.1,0.1,0.2,0.1c-0.1,0-0.1,0.1-0.2,0.1c-0.1,0.1-0.2,0.1-0.3,0.1s-0.3-0.1-0.4-0.2
				c-0.1,0-0.1-0.1-0.2-0.1c0,0,0.1,0,0.1-0.1c0.1-0.1,0.2-0.1,0.3-0.1C-1457.5-1560.5-1457.4-1560.4-1457.2-1560.3z
				 M-1496.2-1563.7c0,0,0.1,0.1,0.2,0.1c-0.1,0-0.2,0-0.2,0.1c-0.2,0.1-0.4,0.1-0.6,0.1c-0.1,0-0.2-0.1-0.3-0.2l-0.1-0.1
				c0.1,0,0.3,0,0.4,0c0.1,0,0.2,0,0.4,0C-1496.4-1563.8-1496.3-1563.8-1496.2-1563.7z M-1591.8-1568.5c0.1,0,0.2,0,0.4,0
				c-0.2,0.1-0.3,0.2-0.4,0.3c-0.2,0.1-0.3,0.2-0.4,0.3c-0.1,0-0.2,0-0.3,0c0,0-0.1,0-0.2,0c0-0.1,0.1-0.1,0.1-0.2
				c0.1-0.1,0.1-0.3,0.2-0.3C-1592.2-1568.5-1592-1568.5-1591.8-1568.5z M-1883.2-1422.9c0.1-0.1,0.2-0.3,0.3-0.4
				c0,0.1,0.1,0.1,0.1,0.1c0.1,0.1,0.1,0.2,0.1,0.2c-0.1,0.1-0.2,0.3-0.3,0.4c-0.1,0-0.2,0-0.2,0l0,0l0,0h-0.1
				C-1883.4-1422.7-1883.3-1422.7-1883.2-1422.9z M-1579-579.1h0.5C-1578.6-579-1578.8-579-1579-579.1z M-1480.2-581.8
				c-0.4,0.1-0.8,0.1-1.2,0.2c1.7-0.5,3.1-1.1,4.4-1.8c1.9-1.1,3.6-1.9,4.9-2.6c-3.8,1.3-9.4,2.6-15.5,2.5c-6.7-0.1-11.2,1.4-16.1,3
				l0,0c-2.1,0.7-4.3,1.4-6.7,2c-7.5,0.5-14.9,0.9-22.2,1.1c-1.8-0.2-3.8-0.5-5.8-0.8c-22.9-3.6-32.2-2-37-1.1
				c-1.3,0.2-2.2,0.4-3,0.4c7.9,0.6,18.2,1.2,29.4,1.6c-9.7-0.1-19.3-0.6-28.7-1.3c-94.2-8.1-172-47.7-245.6-93.7
				c37.7,31.3,128.2,84.5,245.6,93.7c11.2,1,22.6,1.5,34.3,1.5c5.1,0.1,10.3,0.2,15.5,0.2c3.9,0.2,7.2,0.1,10.1-0.2
				c14.7-0.4,28.1-1.7,36.4-4.4C-1481.1-581.7-1480.7-581.7-1480.2-581.8z M-1469.7-583.4c-3.6,0.6-7.1,1.1-10.6,1.6
				C-1476.7-582.3-1473.2-582.8-1469.7-583.4z M-1517.8-577.3c-3.3,0.1-6.7,0.1-10.1,0.2c-1.2-0.1-2.5-0.2-3.8-0.3
				c6.9-0.2,13.9-0.5,21-1.1C-1512.9-577.9-1515.2-577.5-1517.8-577.3z M-1424.6-583.5c-90.5,22.5-155.3,16-227.8-0.8
				c3.2,0.2,8.1,1.2,14.8,2.5l0,0C-1605.5-575.5-1533.7-561.4-1424.6-583.5z M-1646.1-600.8c62.2,17.6,109.3,23.6,194.9,3.2
				c-93.1,20.8-154.8,6-182.2-0.6C-1639.1-599.5-1643.4-600.5-1646.1-600.8z M-1645.6-580.1c-91-20.3-146.1-55.1-203.4-102.5
				c2.8,1.7,6.9,4.9,12.3,9.3C-1811-652.6-1754.2-606.8-1645.6-580.1z"/>
		</g>
		<g transform="matrix(1,0,0,1,92.01799774169922,506.8599853515625)" class="st1">
			<path class="st5" d="M-1510-1031l-69.5-144.3h-22.7v214.1h22.7v-167.5l60.8,124.7h17.3l60.6-124.7v167.6h22.7v-214.2h-22.7
				L-1510-1031z"/>
		</g>
		<g transform="matrix(1,0,0,1,298.3320007324219,506.8599853515625)" class="st1">
			<path class="st5" d="M-1519.6-1175.3l-77.9,214.1h23.9l15.5-44.5l9-26.3h-0.1l38.8-111.7l25,71.6l14,40.1h-0.1l8.6,24.7
				l16.1,46.1h24l-77.9-214.1C-1500.7-1175.3-1519.6-1175.3-1519.6-1175.3z"/>
		</g>
		<g transform="matrix(1,0,0,1,490.6990051269531,506.8599853515625)" class="st1">
			<path class="st5" d="M-1454.7-1003.3l-110.8-172h-22.7v214.1h22.7v-172.5l110.8,172.5h22.7v-214.1h-22.7V-1003.3z"/>
		</g>
		<g transform="matrix(1,0,0,1,668.3079833984375,506.8599853515625)" class="st1">
			<path class="st5" d="M-1582.4-1154.8h61.1v193.7h22.4v-193.7h61.1v-20.5h-144.6V-1154.8z"/>
		</g>
		<g transform="matrix(1,0,0,1,842.2509765625,506.8599853515625)" class="st1">
			<path class="st5" d="M-1452.6-1077.2c8.1-9.9,12.1-22.6,12.1-37.9c0-19.2-5.7-34.1-17.2-44.6c-11.4-10.4-27.2-15.6-47.3-15.6
				h-79.4v214.1h22.6v-94h51.5l48.4,94h26.1l-50.6-96.2C-1471.9-1060.7-1460.7-1067.3-1452.6-1077.2z M-1561.8-1074.8v-80.1h54.9
				c14.1,0,24.8,3.3,32.5,10.1c7.4,6.8,11.2,16.8,11.2,30c0,12.9-3.8,22.7-11.5,29.6c-7.6,6.9-18.4,10.4-32.3,10.4H-1561.8z"/>
		</g>
		<g transform="matrix(1,0,0,1,1273.8699951171875,506.8599853515625)" class="st1">
			<path class="st5" d="M-1510.6-1175.3h-73.2v214.1h73.2c22.8,0,40.8-6.6,54.2-19.7c13.3-13.1,20-33.9,20-62.2v-50.3
				c0-28.4-6.7-49-20-62.2C-1469.9-1168.7-1487.9-1175.3-1510.6-1175.3z M-1459.5-1041.8c0,40.1-16.9,60.2-50.8,60.2h-50.5v-173.2
				h50.5c16.4,0,29,5,37.7,14.9c8.8,9.9,13.2,25.7,13.2,47.5L-1459.5-1041.8L-1459.5-1041.8L-1459.5-1041.8z"/>
		</g>
		<g transform="matrix(1,0,0,1,1638.9000244140625,506.6700134277344)" class="st1">
			<path class="st5" d="M-1456.1-1158.2c-13.3-13.1-31.3-19.7-53.8-19.7c-22.8,0-40.8,6.6-54.3,19.7c-13.4,13.1-20.2,33.9-20.2,62.2
				v55.5c0,28.4,6.7,49,20,62.2c13.3,13.1,31.4,19.7,54.2,19.7c22.6,0,40.6-6.6,54-19.7c13.4-13.1,20.2-33.9,20.2-62.2v-55.5
				C-1436-1124.3-1442.6-1145-1456.1-1158.2z M-1458.6-1039.1c0,39.9-17,59.9-51.2,59.9c-16.9,0-29.8-4.8-38.7-14.3
				s-13.2-24.8-13.2-45.6v-55.9c0-21.9,4.4-37.8,13-47.6c8.7-9.8,21.6-14.8,38.8-14.8c34.1,0,51.2,20.8,51.2,62.4L-1458.6-1039.1
				L-1458.6-1039.1z"/>
		</g>
		<g transform="matrix(1,0,0,1,1457.47998046875,506.8599853515625)" class="st1">
			<path class="st5" d="M-1422.8-961.2l-77.9-214.1h-18.9l-77.9,214.1h23.9l12.9-36.8l11.7-34l9-25.9l29.8-85.8l39.1,111.7h-0.1
				l11.2,32.4l13.3,38.4H-1422.8z"/>
		</g>
		<g transform="matrix(1,0,0,1,1018.47998046875,506.8599853515625)" class="st1">
			<path class="st5" d="M-1422.8-961.2l-77.9-214.1h-18.9l-77.9,214.1h23.9l15.1-43.4l9.4-27.3h-0.1l38.8-111.7l35.6,101.5l3.5,10.2
				l9.4,27.3l15.1,43.4H-1422.8z"/>
		</g>
	</g>
	<g transform="matrix(0.05999999865889549,0,0,0.05999999865889549,225.00018310546875,121)" class="st30">
		<g transform="matrix(1,0,0,1,1248.93798828125,1561.5)" class="st1">
			<path class="st31" d="M-3039.3-3803l-92,92c73.1,115,96.1,259.2,46,397.1c-83.6,234.1-342.8,357.5-579,273.9
				c-33.5-12.5-64.8-27.1-92-46l-294.8,294.8l-257.1-259.2c-119.1,79.4-271.8,102.4-416,52.2c-242.5-87.8-367.9-353.3-280.1-593.7
				c12.5-37.6,31.4-71.1,52.2-102.4l-110.7-110.7l-20.9,35.5c-115,188.1-177.6,405.5-177.6,629.1
				c-2.1,666.8,541.4,1212.4,1208.1,1212.4h2.1c666.8,0,1208.2-541.4,1210.2-1208.2c0-221.6-60.6-439-175.6-629.1L-3039.3-3803z"/>
		</g>
		<g transform="matrix(1,0,0,1,1247.875,726.375)" class="st1">
			<path class="st31" d="M-4815-2723.2c-31.4,41.8-50.1,94.1-50.1,150.5c0,135.9,110.8,246.6,246.6,246.6
				c56.5,0,108.8-18.9,150.5-52.2L-4815-2723.2z M-3604.8-2399.4c39.8,27.1,85.8,41.8,138,41.8c135.9,0,246.6-110.8,246.6-246.6
				c0-50.1-14.6-98.2-41.8-138L-3604.8-2399.4z M-4045.9-2140.1L-5045-3143.5l39.8-41.7c246.6-261.3,583.1-407.7,944.7-407.7h2.1
				c365.8,0,717,156.7,961.5,428.5l37.6,41.7L-4045.9-2140.1z M-4881.9-3143.5l836.1,838.2l825.6-821.5
				c-221.6-221.5-522.6-349.1-836.1-349.1h-2.1C-4369.9-3475.9-4660.4-3358.7-4881.9-3143.5z"/>
		</g>
	</g>
	<g transform="matrix(3.700000047683716,0,0,3.700000047683716,226,122)" class="st32">
		<g transform="matrix(1,0,0,1,20,20)" class="st1">
			<path class="st33" d="M-65.8-26.4c-11,0-20-9-20-20.1c0.1-11,9-20,20.1-19.9c11,0.1,19.9,9,19.9,20.2
				C-45.9-35.3-54.8-26.4-65.8-26.4z"/>
		</g>
		<g transform="matrix(1,0,0,1,20.149999618530273,19.950000762939453)" class="st1">
			<path class="st5" d="M-64-48.8l-0.6,3.2l5.7,0.8l-0.4,1.5l-5.6-0.8c-0.4,1.3-0.6,2.7-1.1,3.9c-0.5,1.4-1,2.8-1.6,4.1
				c-0.8,1.7-2.2,2.9-4.1,3.2c-1.1,0.2-2.3,0.1-3.2-0.6c-0.3-0.2-0.6-0.6-0.6-0.9c0-0.4,0.2-0.9,0.5-1.1c0.2-0.1,0.7,0,1,0.1
				c0.3,0.3,0.6,0.7,0.8,1.1c0.6,0.8,1.4,0.9,2.2,0.3c0.9-0.8,1.4-1.9,1.7-3c0.6-2.4,1.2-4.7,1.7-7.1v-0.4l-5.3-0.8l0.2-1.5l5.5,0.8
				l0.7-3.1l-5.7-0.9l0.2-1.6l5.9,0.8c0.2-0.6,0.3-1.1,0.5-1.6c0.5-1.8,1-3.6,2.2-5.2s2.6-2.6,4.7-2.5c0.9,0,1.8,0.3,2.4,1
				c0.1,0.1,0.3,0.3,0.3,0.5c0,0.4,0,0.9-0.3,1.2c-0.4,0.3-0.9,0.2-1.3-0.2c-0.3-0.3-0.5-0.6-0.8-0.9c-0.6-0.8-1.5-0.9-2.2-0.2
				c-0.5,0.5-1,1.2-1.3,1.9c-0.7,2.1-1.2,4.3-1.9,6.5l5.5,0.8l-0.4,1.5L-64-48.8z"/>
		</g>
	</g>
	<g transform="matrix(6.833000183105469,0,0,6.833000183105469,215.86526489257812,110.54943084716797)" class="st18">
		<g transform="matrix(1,0,0,1,12.314000129699707,12.314000129699707)" class="st1">
			<path class="st34" d="M-29.2-18.8c-0.8,0.8-2,0.8-2.8,0c-0.8-0.8-0.8-2,0-2.8c0.8-0.8,2-0.8,2.8,0
				C-28.4-20.9-28.4-19.6-29.2-18.8z M-37.7-14.6l2.8-2.8c0.4-0.4,1-0.4,1.4,0c0.4,0.4,0.4,1,0,1.4l-2.8,2.8c-0.4,0.4-1,0.4-1.4,0
				C-38-13.6-38-14.2-37.7-14.6z M-26.3-17.4l2.8,2.8c0.4,0.4,0.4,1,0,1.4s-1,0.4-1.4,0l-2.8-2.8c-0.4-0.4-0.4-1,0-1.4
				C-27.4-17.8-26.7-17.8-26.3-17.4z M-39.1-28.7c-0.8,0.8-2,0.8-2.8,0c-0.8-0.8-0.8-2,0-2.8c0.8-0.8,2-0.8,2.8,0
				C-38.3-30.8-38.3-29.5-39.1-28.7z M-37.7-34.4l2.8-2.8c0.4-0.4,1-0.4,1.4,0c0.4,0.4,0.4,1,0,1.4l-2.8,2.8c-0.4,0.4-1,0.4-1.4,0
				C-38-33.4-38-34-37.7-34.4z M-36.2-27.3l2.8,2.8c0.4,0.4,0.4,1,0,1.4c-0.4,0.4-1,0.4-1.4,0l-2.8-2.8c-0.4-0.4-0.4-1,0-1.4
				C-37.3-27.7-36.6-27.7-36.2-27.3z M-46.1-37.2l2.8,2.8c0.4,0.4,0.4,1,0,1.4c-0.4,0.4-1,0.4-1.4,0l-2.9-2.8c-0.4-0.4-0.4-1,0-1.4
				C-47.2-37.6-46.5-37.6-46.1-37.2z"/>
		</g>
	</g>
	<g transform="matrix(0.6499999761581421,0,0,0.6499999761581421,99.15000915527344,101.33000183105469)" class="st35">
		<g transform="matrix(1,0,0,1,322.25,133.85000610351562)" class="st1">
			<path class="st5" d="M-402.8-264.3v-0.2c0-15.4,12.3-28.2,28.8-28.2c16.6,0,28.7,12.6,28.7,28v0.2c0,15.3-12.3,28.1-28.9,28.1
				C-390.6-236.4-402.8-249-402.8-264.3z M-357.6-264.3v-0.2c0-9.5-6.8-17.4-16.6-17.4c-9.9,0-16.3,7.8-16.3,17.2v0.2
				c0,9.4,6.8,17.3,16.5,17.3C-363.9-247.3-357.6-255-357.6-264.3z"/>
		</g>
		<g transform="matrix(1,0,0,1,385.70001220703125,133.9499969482422)" class="st1">
			<path class="st5" d="M-399-264.4v-0.2c0-15.3,11.9-28.2,28.1-28.2c10.1,0,16.5,3.8,21.6,9.3l-7.8,8.3c-3.8-4-7.8-6.7-13.9-6.7
				c-9,0-15.6,7.8-15.6,17.2v0.2c0,9.6,6.6,17.3,16.1,17.3c5.8,0,10.1-2.7,14-6.6l7.5,7.4c-5.3,5.9-11.5,10.1-22.1,10.1
				C-387.2-236.5-399-249.1-399-264.4z"/>
		</g>
		<g transform="matrix(1,0,0,1,502.1499938964844,133.85000610351562)" class="st1">
			<path class="st5" d="M-400.2-264.4v-0.2c0-15.4,10.9-28.1,26.4-28.1c17.2,0,25.9,13.5,25.9,29c0,1.1-0.1,2.2-0.2,3.5h-39.7
				c1.3,8.8,7.6,13.7,15.5,13.7c6,0,10.3-2.2,14.6-6.4l7.3,6.4c-5.1,6.1-12.2,10.1-22.1,10.1C-388.2-236.4-400.2-247.8-400.2-264.4z
				 M-360.3-268.4c-0.8-8-5.5-14.2-13.7-14.2c-7.6,0-12.9,5.8-14,14.2H-360.3z"/>
		</g>
		<g transform="matrix(1,0,0,1,565.2000122070312,112.0999984741211)" class="st1">
			<path class="st5" d="M-378.9-269.9h9.8v10.6h-9.8V-269.9z"/>
		</g>
		<g transform="matrix(1,0,0,1,553.0999755859375,126.80000305175781)" class="st1">
			<path class="st5" d="M-371.5-247.5V-270v-15.3v-14.1h-12.4v14.8h-6.8v10.6h6.8v28.4c0,11.9,6.4,15.8,15.5,15.8
				c4.7,0,8.1-1,11.1-2.8v-10.1c-2.5,1.2-4.9,1.8-7.7,1.8C-369.1-240.8-371.5-242.7-371.5-247.5z"/>
		</g>
		<g transform="matrix(1,0,0,1,446.04998779296875,133.5)" class="st1">
			<path class="st5" d="M-394.9-237.7v-53.7l10.7-0.1v18.9l16.2-19h13.3l-29.4,35.4l-0.1,18.6h-10.7V-237.7z M-365.4-237.7
				l-10.5-15.1l6.3-8c0,0,16.4,22.9,16.4,23.1H-365.4z"/>
		</g>
		<g transform="matrix(1,0,0,1,446.1000061035156,133.5)" class="st1">
			<path class="st5" d="M-352.7-237.2h-13l-10.8-15.7l6.9-8.8l0.4,0.5c16.5,23.1,16.5,23.2,16.5,23.4
				C-352.7-237.8-352.7-237.2-352.7-237.2z M-383.7-237.2h-11.6v-54.7l11.7-0.1v18.1l15.5-18.1h14.6l-30.1,35.9L-383.7-237.2z"/>
		</g>
		<g transform="matrix(1,0,0,1,260.25,154.89999389648438)" class="st1">
			<path class="st5" d="M-358.7-304.9c-3,2.4-6.1,4.9-9,7.5l-0.1,0.1c2.3,3,3.6,6.9,3.6,11.1v0.2c0,4.2-1.3,8-3.6,11
				c-0.1,0.1-0.2,0.2-0.2,0.3c-3.3,3.6-7.3,5.4-11.9,5.4l-16.5-0.1v45.1h9.7v-34.4c0,0,4,0.6,6.1,0.6c16.7,0,28.9-12.8,28.9-28.1
				v-0.2C-351.8-293.5-354.4-299.9-358.7-304.9z"/>
		</g>
		<g transform="matrix(1,0,0,1,176.0500030517578,143.7989959716797)" class="st1">
			<path class="st5" d="M-360.5-263.5c0,27.3-17.3,50.6-41.6,59.5v14.4c32.4-9.5,56.1-39.5,56.1-75s-23.7-65.5-56.1-75v16.6
				C-377.9-314.1-360.5-290.8-360.5-263.5z"/>
		</g>
		<g transform="matrix(1,0,0,1,76.0999984741211,143.85000610351562)" class="st1">
			<path class="st5" d="M-402.2-264.5c0,35.6,23.8,65.6,56.4,75V-204c-24.3-8.9-41.6-32.1-41.6-59.5c0-27.3,17.3-50.6,41.6-59.5
				v-16.6C-378.4-330.1-402.2-300.1-402.2-264.5z"/>
		</g>
		<g transform="matrix(1,0,0,1,111.44999694824219,220.5500030517578)" class="st1">
			<path class="st5" d="M-381.2-293.1v57.5h14.3v-57.9c-2,1.7-4.6,2.7-7.4,2.7C-376.9-290.8-379.3-291.7-381.2-293.1z"/>
		</g>
		<g transform="matrix(1,0,0,1,144.64999389648438,155.89999389648438)" class="st1">
			<path class="st5" d="M-358.5-299.2c-4.5,3.6-9,7.3-13.3,11.1c-0.1,0-0.1,0.1-0.2,0.1c3.4,4.5,5.4,10.2,5.4,16.4v0.3
				c0,6.2-1.9,11.9-5.3,16.3c-0.1,0.1-0.2,0.3-0.3,0.4c-4.9,5.4-10.8,8.1-17.7,8.1c0,0-4.7,0-10-0.1c2.4,2.1,4,5.3,4,8.7
				c0,2.8-1,5.3-2.6,7.3c2,0.2,5.4,0.6,7.4,0.6c24.7,0,42.9-18.9,42.9-41.7v-0.3C-348.3-282.3-352.1-291.9-358.5-299.2z"/>
		</g>
		<g transform="matrix(1,0,0,1,140.85000610351562,67.05000305175781)" class="st1">
			<path class="st5" d="M-366.9-236v-57.5h-14.3v57.9c2-1.7,4.6-2.7,7.4-2.7C-371.2-238.2-368.8-237.4-366.9-236z"/>
		</g>
		<g transform="matrix(1,0,0,1,107.55000305175781,131.6999969482422)" class="st1">
			<path class="st5" d="M-389.6-230c4.5-3.6,9-7.3,13.3-11.1c0.1,0,0.1-0.1,0.2-0.1c-3.4-4.5-5.4-10.2-5.4-16.4v-0.3
				c0-6.2,1.9-11.9,5.3-16.3c0.1-0.1,0.2-0.3,0.3-0.4c4.9-5.4,10.8-8.1,17.7-8.1c0,0,4.7,0,10,0.1c-2.4-2.1-4-5.3-4-8.7
				c0-2.8,1-5.3,2.6-7.3c-2-0.2-5.4-0.6-7.4-0.6c-24.7,0-42.9,18.9-42.9,41.7v0.3C-399.8-246.8-396-237.3-389.6-230z"/>
		</g>
		<g transform="matrix(1,0,0,1,141.10000610351562,104.9000015258789)" class="st1">
			<path class="st5" d="M-374-256.3c2.9,0,5.4-1.5,6.9-3.7c0.9-1.3,1.4-2.9,1.4-4.6c0-1.7-0.5-3.3-1.4-4.6c-1.5-2.2-4-3.7-6.9-3.7
				c-4.6,0-8.3,3.7-8.3,8.3C-382.3-260-378.5-256.3-374-256.3z"/>
		</g>
		<g transform="matrix(1,0,0,1,111.0999984741211,183)" class="st1">
			<path class="st5" d="M-374-272.9c-2.9,0-5.4,1.5-6.9,3.7c-0.9,1.3-1.4,2.9-1.4,4.6c0,1.7,0.5,3.3,1.4,4.6c1.5,2.2,4,3.7,6.9,3.7
				c4.6,0,8.3-3.7,8.3-8.3C-365.7-269.2-369.4-272.9-374-272.9z"/>
		</g>
	</g>
</g>
</svg>
